<?xml version="1.0" encoding="utf-8"?>
<!-- Generator: Adobe Illustrator 24.3.0, SVG Export Plug-In . SVG Version: 6.00 Build 0)  -->
<svg version="1.1" id="Layer_1" xmlns="http://www.w3.org/2000/svg" xmlns:xlink="http://www.w3.org/1999/xlink" x="0px" y="0px"
	 viewBox="0 0 124 84" style="enable-background:new 0 0 124 84;" xml:space="preserve">
<style type="text/css">
	.st0{opacity:0.75;}
	.st1{fill:#C2852B;}
	.st2{filter:url(#Adobe_OpacityMaskFilter);}
	.st3{fill:url(#SVGID_2_);}
	.st4{mask:url(#SVGID_1_);}
	.st5{fill:url(#SVGID_3_);}
	.st6{fill:#000301;}
	.st7{fill:url(#SVGID_4_);}
	.st8{fill:#050007;}
	.st9{fill:#D0BE95;}
	.st10{fill:#836338;}
	.st11{fill:url(#SVGID_5_);}
	.st12{fill:url(#SVGID_6_);}
	.st13{fill:#796B4B;}
	.st14{fill:url(#SVGID_7_);}
	.st15{fill:url(#SVGID_8_);}
	.st16{fill:url(#SVGID_9_);}
	.st17{fill:url(#SVGID_10_);}
	.st18{fill:url(#SVGID_11_);}
	.st19{fill:url(#SVGID_12_);}
	.st20{fill:url(#SVGID_13_);}
	.st21{fill:#020202;}
</style>
<g>
	
		<image style="display:none;overflow:visible;" width="193" height="144" xlink:href="6993E0F1.png"  transform="matrix(1 0 0 1 -34.3213 -10)">
	</image>
	<g class="st0">
		<g>
			<path class="st1" d="M85.7,5l-5,1.1c0,0-12.1-8.5-22.3,0c0,0-7.6,7.4-7.5,23.9c0,0-1,15.1,7.4,23.8c0,0,6.3,8.6,13.8,6.5
				c0.9-0.2,1.7-0.7,2.4-1.2c2.6-2.1,9.2-8.9,4.5-20.6c0,0,4.1-4.6,5.3-9.8c1.1-4.9-2.7-9.6-7.7-9.6l-17.6,0.1
				c0,0,0.9-14.4,16.2-10.6c0,0,2.8,1.1,4.7,3c0,0,1.6,1.1,3.9-0.8c0.8-0.7,1.7-1.4,2.6-2c2.2-1.5,5.9-4.1,6-5c0,0,0,0,0,0
				c0-0.1-0.3-1-5.2,0.8C86.6,4.7,86.1,4.9,85.7,5z M72,53.5c0,0-2.3,3-6.7,0c0,0-3-1.8-4.4-4.5c0,0-2.1-3.1-2.5-5.8
				c0,0,12.9-0.8,15.1-0.2c0,0,1.2,0.2,1.1,1.4C74.6,44.4,74.9,51.2,72,53.5z M77.7,26.7c0,2.2-0.5,7.5-6.2,9.6l-13.7,0.6
				c0,0-1.2-5-0.2-9.2c0.3-1.1,1.2-1.9,2.4-1.9h16.8C77.3,25.7,77.7,26.1,77.7,26.7z"/>
			<path class="st1" d="M60.1,60.4c-8-1.2-13.9-8.5-13.9-8.5c-5.6-6.8-1.9-19.7-1.9-19.7c2.3-5.9,3.3-9.1,3.3-9.1
				c3.2-11.1-3.9-13.9-3.9-13.9C40.4,8,37.9,8.6,36,9.7c-2.9,1.7-4.5,5-4.2,8.3c0.5,6.8,6.6,8.9,6.6,8.9l-0.7,3.4
				C35.6,44.9,40.6,51,40.6,51c5.9,9.1,15.4,9.6,15.4,9.6C61.3,61.6,60.1,60.4,60.1,60.4z M39.8,23.9L39,23.5c0,0-3.8-4-2.5-7.5
				c1.1-3.1,5.7-2.3,5.8,1c0,0,0,0.1,0,0.1C42.3,17.1,42.5,22.6,39.8,23.9z"/>
		</g>
	</g>
	<defs>
		<filter id="Adobe_OpacityMaskFilter" filterUnits="userSpaceOnUse" x="1.6" y="38.5" width="120.7" height="41.6">
			<feColorMatrix  type="matrix" values="1 0 0 0 0  0 1 0 0 0  0 0 1 0 0  0 0 0 1 0"/>
		</filter>
	</defs>
	<mask maskUnits="userSpaceOnUse" x="1.6" y="38.5" width="120.7" height="41.6" id="SVGID_1_">
		<g class="st2">
			<linearGradient id="SVGID_2_" gradientUnits="userSpaceOnUse" x1="64.0975" y1="37.9298" x2="64.0975" y2="101.1993">
				<stop  offset="0.5505" style="stop-color:#FFFFFF"/>
				<stop  offset="0.6055" style="stop-color:#FBFBFB"/>
				<stop  offset="0.6617" style="stop-color:#EFEFEF"/>
				<stop  offset="0.7186" style="stop-color:#DADADA"/>
				<stop  offset="0.7758" style="stop-color:#BDBDBD"/>
				<stop  offset="0.8334" style="stop-color:#989898"/>
				<stop  offset="0.8913" style="stop-color:#6B6B6B"/>
				<stop  offset="0.9483" style="stop-color:#363636"/>
				<stop  offset="1" style="stop-color:#000000"/>
			</linearGradient>
			<rect x="-6" y="38.2" class="st3" width="140.1" height="73.2"/>
		</g>
	</mask>
	<g class="st4">
		<linearGradient id="SVGID_3_" gradientUnits="userSpaceOnUse" x1="62.7287" y1="58.1234" x2="109.1987" y2="39.2624">
			<stop  offset="5.865920e-02" style="stop-color:#E2D9B8"/>
			<stop  offset="0.3469" style="stop-color:#E0D3B1"/>
			<stop  offset="0.749" style="stop-color:#DBC49F"/>
		</linearGradient>
		<path class="st5" d="M62.6,63.9c0,0-1.8-1.7-1.7-4.9L60,56.5c0,0-1.8-7.4,9.8-6.7c1.6,0.1,3.2-0.1,4.7-0.8
			c0.5-0.2,1.1-0.5,1.6-0.9c1.3-0.9,2.7-1.7,4.1-2.4c4.8-2.4,14.1-6.9,17.3-7.2l12.6,7.6l-0.7,0.4c0,0-12.5,2.1-19.6,5.8
			c0,0-8.9,4.5-17.9,2.7C71.9,55.1,58.3,53,62.6,63.9z"/>
		<polygon class="st6" points="110.1,46.1 109.3,46.5 114.3,54.1 115.7,54.8 115.7,56.4 116.5,55.1 116.5,54.1 113.8,52.2 
			110.6,46.1 		"/>
		<linearGradient id="SVGID_4_" gradientUnits="userSpaceOnUse" x1="62.0031" y1="58.7322" x2="115.6951" y2="53.0088">
			<stop  offset="5.307260e-02" style="stop-color:#957041"/>
			<stop  offset="0.7877" style="stop-color:#926355"/>
		</linearGradient>
		<path class="st7" d="M62.6,63.9c0,0-4.5-8.5,6.6-9c0,0,2.4,0.4,5,0.5c0,0,5.5,0.4,9.7-0.9c0,0,3.5-0.6,6.6-2.4
			c0,0,5.6-2.8,18.9-5.5l5,7.6l1.4,0.7v1.6L105,57.3h-6l-10,0.2l-21.8,7.9C67.3,65.3,66.4,63.7,62.6,63.9z"/>
		<path class="st8" d="M74.2,55.4c0,0-12.2-1.3-11.5,4.5c0,0,0.6,6.5,10.9,1.3l4.4-0.4l-11.2,4c0,0-1.5-0.9-4.2-0.9
			c0,0-4.5-8.5,6.6-9L74.2,55.4z"/>
		<polygon class="st9" points="99.1,57.3 114.3,54.1 115.7,54.8 105.5,57.3 		"/>
		<polygon class="st10" points="105.5,57.3 115.7,54.8 115.7,56.4 		"/>
		<linearGradient id="SVGID_5_" gradientUnits="userSpaceOnUse" x1="9.0095" y1="55.2238" x2="67.3086" y2="55.2238">
			<stop  offset="5.865920e-02" style="stop-color:#9D7060"/>
			<stop  offset="0.7877" style="stop-color:#80693F"/>
		</linearGradient>
		<path class="st11" d="M62.6,63.9l-0.9-1.3L56,56.4l-16.5-3.2l-12.2-5l-11-3.3l-4.6,0.4L11.1,47c0,0-2.3,2.2-2.1,5.6l4.9,0.5
			l2.9,2.3c0,0,4,0.6,4.9,1.5l3-0.1l0.5,1.2l-0.2,1.1l33.8,6.4l8.4-0.2C67.3,65.3,67.2,63.7,62.6,63.9z"/>
		<linearGradient id="SVGID_6_" gradientUnits="userSpaceOnUse" x1="12.953" y1="46.2936" x2="62.8414" y2="56.6698">
			<stop  offset="4.748600e-02" style="stop-color:#F9EDD8"/>
			<stop  offset="0.2691" style="stop-color:#F5E9D1"/>
			<stop  offset="0.5851" style="stop-color:#EADCBF"/>
			<stop  offset="0.749" style="stop-color:#E2D4B2"/>
		</linearGradient>
		<path class="st12" d="M62.6,63.9c0,0-1.7-1.6-1.7-4.9l-0.9-3.3c0,0-2.5-6-11.5-5.5c0,0-5.8-1.8-7.1-2.9c0,0-3.5-1.4-6.5-2.3
			c-0.8-0.2-1.8-0.7-2.1-0.9c-0.1,0-0.1-0.1-0.2-0.1c-0.3-0.1-1.5-0.7-5.9-1.8l-2.5-0.8c0,0-10.2,1.3-12.5,4c0,0,2.3-0.1,4.1,0.7
			c0.7,0.3,1.3,0.6,2.1,0.7c1.5,0.2,4.1,0.8,6.2,2.1c0.8,0.5,1.6,0.8,2.5,1.1l22.2,6.4c0.2,0.1,0.4,0.1,0.6,0.1
			C50.9,56.7,58.7,58.1,62.6,63.9z"/>
		<path class="st13" d="M67.3,65.3c0,0,0-1.6-4.7-1.4l-3.8,0.9l-14.1-3.2l-15.3-2.9l-4.2-0.6l-0.2,1.1l33.8,6.4L67.3,65.3z"/>
		<path class="st8" d="M62.6,63.9c0,0-3.9-6.1-13.2-7.5c-0.5-0.1-1-0.2-1.5-0.3l-14.5-4.2l-6.9-2c0,0,18.7,6.1,23.9,7.3
			c1,0.2,2,0.6,2.9,1c2.6,1.2,7.2,3.6,8.4,5.9L62.6,63.9z"/>
		<path class="st8" d="M11.6,45.3V47c0,0-1.8,2.6-2.6,5.6c0,0-0.3-3.1,2.1-5.6L11.6,45.3z"/>
		<linearGradient id="SVGID_7_" gradientUnits="userSpaceOnUse" x1="1.6417" y1="49.9504" x2="11.6376" y2="49.9504">
			<stop  offset="0" style="stop-color:#F1AF00"/>
			<stop  offset="1" style="stop-color:#FF7A00"/>
		</linearGradient>
		<path class="st14" d="M1.6,54.6c0-2.3,1.3-4.5,3.3-5.6l6.7-3.7L11.1,47c0,0-1.1,1.1-1.8,3C9.3,50.1,5.7,54.1,1.6,54.6L1.6,54.6z"
			/>
		<linearGradient id="SVGID_8_" gradientUnits="userSpaceOnUse" x1="1.6417" y1="55.3649" x2="16.1357" y2="55.3649">
			<stop  offset="0" style="stop-color:#F1AF00"/>
			<stop  offset="1" style="stop-color:#FF7A00"/>
		</linearGradient>
		<path class="st15" d="M1.6,54.9c0,0,3.1-0.1,4.2-1.1c0,0,4.9-0.9,8.1-0.7l2.2,1.8l-0.5,0.4c0,0-7.9-0.6-12.5,2.2l-0.5,0.3H1.6
			V54.9z"/>
		<linearGradient id="SVGID_9_" gradientUnits="userSpaceOnUse" x1="1.6417" y1="67.4665" x2="121.4493" y2="67.4665">
			<stop  offset="0" style="stop-color:#F1AF00"/>
			<stop  offset="1" style="stop-color:#FF7A00"/>
		</linearGradient>
		<path class="st16" d="M1.6,58.1h6.5c0,0,7.1,4,7.2,4c0.1,0,2.7,0.4,2.7,0.4l2.2,1.9c0,0,10-0.7,14.5,2.3c0,0,4.9,2.5,6.9,2
			c0,0,3.9,0.2,5.2,0.9l11.2,0.2l10.6-3.7l7.9-3.6l11.2-4.4l3.6-0.2h7.4l12.7-0.8l-10.2,5.6c0,0-9,2.5-12.2,2.3c0,0-5.3-0.7-8.5,1.4
			c-3.2,2.2-0.2,0-0.2,0l8.4-0.7l7.9-1.3l1.7-0.4L90,67.9c0,0-12.6-0.8-17.8,1.1l-6.5,0.7c0,0,24.5-1,24.7-1c0.1,0,6.4-3.5,6.4-3.5
			l14.7-6.7c0,0,5.3-1.4,4.3,3.1l-9.4,5L99.4,69l8.9-2.2l11.3-6l-1.8,2.3l3.6-3l-5.5,6.6l-6.5,3.1l-18.5,4L84.3,75l-7,2L74,77.8
			l-20.8-0.3c0,0-6.6-1-9.3-1.1c0,0-4.3-1.8-12.7-1.9c0,0-2.9-1.3-9.8-1.5c0,0-4.4-3.4-9.8-3.2l6.3-0.4l5.2,1.2c0,0-3.7-2-3.9-2
			c-0.2,0-2.8-0.1-3.1-0.2c-0.3-0.1-0.2-1-0.2-1l3.3-0.5l2.7,1.4l7.4,1.6l6.4,2.6c0,0,15.6,2.2,15.7,2.2c0.2,0,25.2-0.1,25.2-0.1
			l1-1l-4.3-1.7l-33,0.2c0,0-3.8,0.2-8.4-2.2l-4.5-1.2l-2.6-0.4c0,0-1.2-4.8-10.1-3.8l-5.8-2.2L4,60.1L7.8,63l3.7,1.5l-7.3-0.4
			l-2.5-0.9V58.1z"/>
		<linearGradient id="SVGID_10_" gradientUnits="userSpaceOnUse" x1="3.6551" y1="59.7341" x2="24.6831" y2="59.7341">
			<stop  offset="0" style="stop-color:#F1AF00"/>
			<stop  offset="1" style="stop-color:#FF7A00"/>
		</linearGradient>
		<path class="st17" d="M3.7,57.4c0,0,8.9-0.2,14.1,4.4l3.8,2.1l1.4-0.9c0,0-0.2-6.9,1.8-4.4c0,0,0.3-1.5-0.4-1.6l-2.5,0.2
			C21.7,57.3,15.4,53.4,3.7,57.4z"/>
		<linearGradient id="SVGID_11_" gradientUnits="userSpaceOnUse" x1="23.3012" y1="64.3645" x2="67.8463" y2="64.3645">
			<stop  offset="0" style="stop-color:#F1AF00"/>
			<stop  offset="1" style="stop-color:#FF7A00"/>
		</linearGradient>
		<path class="st18" d="M26.5,60l-2.3-0.7c0,0-1.9,2,0,3.7l2.9,0.9l17.5,3.4l4.7,1.5l8.4,0.6l10.3-3.8L59,67c0,0-9.1-0.4-12.5-2.6
			c0,0-6.3-2.2-9.8-2l-3-0.6c0,0-2.9-0.2-3-0.2c-0.1,0-4.1-1.2-4.1-1.2L26.5,60z"/>
		<linearGradient id="SVGID_12_" gradientUnits="userSpaceOnUse" x1="100.1225" y1="48.5713" x2="122.3824" y2="48.5713">
			<stop  offset="0" style="stop-color:#F1AF00"/>
			<stop  offset="1" style="stop-color:#FF7A00"/>
		</linearGradient>
		<path class="st19" d="M100.1,40.1h2.3l1.9-1.1l5,2.3l4.5,2.8l4.5,3L121,49c0,0,1,0.7,1.2,1.2c0.5,2.2,0,4.6,0,4.6
			s-3.7,4.4-9.2,2.9c-5.6-1.4-0.2-0.2-0.2-0.2l3-1.3l0.8-1.2l4.5-2.5l-4.5,1.5l-2.7-1.9l-1.6-3.1l0.3-2l-1.3-1l0.6,1l-0.2,0.9
			l-1-1.9h-0.5L100.1,40.1z"/>
		<linearGradient id="SVGID_13_" gradientUnits="userSpaceOnUse" x1="7.9152" y1="77.2551" x2="55.5637" y2="77.2551">
			<stop  offset="0" style="stop-color:#F1AF00"/>
			<stop  offset="1" style="stop-color:#FF7A00"/>
		</linearGradient>
		<path class="st20" d="M7.9,77.8l4-3.5l12.1,0.4l17.4,2.5l10.3,0.5c0,0,3.6,1.8,3.8,1.9c0.2,0.1-14.7-1-14.7-1l-17.8,0.6l-11,0.8
			l-3.2-2.3H7.9z"/>
		<path class="st21" d="M93.3,40.7l8.7,4.9c0,0-10,2.5-15.7,6c0,0-7.1,3-14.2,2c0,0,9.2,0.2,14.2-2.5c4.9-2.7,11.5-5,14.5-5.7
			L93.3,40.7z"/>
		<path class="st21" d="M47.1,50.7l-7.2-3l-6.2-1.8c0,0-3.7-2.3-6.1-1.9l-2.1-1.2l-7,2.1l6.7-1.2l2.4,0.9c0,0,2.9,0,5.7,1.8l5.9,1.6
			L47.1,50.7z"/>
		<path d="M104.3,39l6.3,2.3l6.9,4.8l3.4,2.2c0.3,0.2,0.6,0.5,0.7,0.8l0.5,1.1L121,49l-7.1-4.9l-4.5-2.8L104.3,39z"/>
		<path class="st8" d="M59.9,55.7l0.9,3.1c0,0,0,2.8,1.8,5c0,0-1.7-1.6-2.1-5.3L59.9,55.7z"/>
	</g>
</g>
</svg>
