<?xml version="1.0" encoding="utf-8"?>
<!-- Generator: Adobe Illustrator 24.3.0, SVG Export Plug-In . SVG Version: 6.00 Build 0)  -->
<svg version="1.1" id="Layer_1" xmlns="http://www.w3.org/2000/svg" xmlns:xlink="http://www.w3.org/1999/xlink" x="0px" y="0px"
	 viewBox="0 0 1471.1 1610.6" style="enable-background:new 0 0 1471.1 1610.6;" xml:space="preserve">
<style type="text/css">
	.st0{display:none;fill:url(#SVGID_1_);}
	.st1{fill:#2C2532;}
	.st2{fill:url(#SVGID_2_);}
	.st3{fill:url(#SVGID_3_);}
	.st4{fill:#FE6601;}
	.st5{opacity:0.82;}
	.st6{fill:url(#SVGID_4_);}
	.st7{fill:url(#SVGID_5_);}
	.st8{fill:#F49900;}
	.st9{fill:#0028A5;}
	.st10{fill:url(#SVGID_6_);}
	.st11{fill:url(#SVGID_7_);}
	.st12{fill:url(#SVGID_8_);}
	.st13{fill:url(#SVGID_9_);}
	.st14{fill:url(#SVGID_10_);}
	.st15{fill:url(#SVGID_11_);}
	.st16{fill:url(#SVGID_12_);}
	.st17{fill:url(#SVGID_13_);}
	.st18{fill:url(#SVGID_14_);}
	.st19{fill:url(#SVGID_15_);}
	.st20{fill:url(#SVGID_16_);}
</style>
<radialGradient id="SVGID_1_" cx="720.5842" cy="1000" r="1000" gradientUnits="userSpaceOnUse">
	<stop  offset="1.639000e-02" style="stop-color:#9E0000"/>
	<stop  offset="0.2258" style="stop-color:#9A0000"/>
	<stop  offset="0.4359" style="stop-color:#8E0100"/>
	<stop  offset="0.6464" style="stop-color:#7A0200"/>
	<stop  offset="0.856" style="stop-color:#5E0401"/>
	<stop  offset="1" style="stop-color:#460501"/>
</radialGradient>
<rect x="-279.4" class="st0" width="2000" height="2000"/>
<g>
	<g>
		<circle class="st1" cx="735.3" cy="885.6" r="14.7"/>
		<circle class="st1" cx="735.3" cy="885.6" r="14.7"/>
		<g>
			<g>
				<path class="st1" d="M1374.9,885.8c-47.4-3.5-78.9-44.3-112.3-87.5c-24.6-31.8-49.9-64.6-83-82.4c21.2-42,12.1-92.4,3.4-141.2
					c-9.6-53.7-18.7-104.5,10.4-141.9c2.2-2.8,1.9-6.9-0.7-9.4c-1.3-1.3-3-1.9-4.8-1.9c-1.7,0-3.3,0.6-4.6,1.7
					c-18.5,15.9-42.3,23.3-75.1,23.3c-20.8,0-42.8-2.8-66.1-5.8c-22.6-2.9-46-5.9-68.5-5.9c-18.5,0-34.4,2.1-48.5,6.2
					c-14.7-44.7-56.8-73.9-97.5-102.2c-44.8-31.2-87.1-60.6-93-107.7c-0.4-3.5-3.4-6.1-7-6.1h-0.2c-3.6,0.1-6.5,2.9-6.8,6.5
					c-3.5,47.4-44.3,78.9-87.5,112.3c-25.9,20.1-52.6,40.7-71.2,65.5c-4.2,5.6-8,11.4-11.3,17.5c-10-5.1-21-8.6-33.2-10.7
					c-3.5-0.6-7.1-1.1-10.8-1.5c-4.5-0.4-9-0.7-13.8-0.8c-1.3,0-2.5,0-3.8,0c-26,0-53.2,4.9-79.6,9.6c-26.9,4.8-52.3,9.4-76,9.4
					c-27.6,0-48.6-6.3-65.9-19.8c-1.2-0.9-2.8-1.5-4.3-1.5c-1.9,0-3.8,0.8-5.1,2.2c-2.5,2.6-2.6,6.6-0.3,9.4
					c31,36,24.4,87.1,17.5,141.2c-5.1,39.8-10.3,81,0.4,117c-44.7,14.8-73.9,56.8-102.3,97.5c-31.2,44.8-60.6,87.1-107.7,93
					c-3.6,0.5-6.2,3.5-6.1,7.1c0.1,3.6,2.9,6.5,6.4,6.8c47.3,3.5,78.9,44.3,112.3,87.5c24.6,31.8,49.9,64.6,83,82.5
					c-21.2,42-12.1,92.4-3.4,141.2c9.6,53.7,18.7,104.5-10.4,141.9c-2.2,2.9-1.9,6.9,0.7,9.4c1.3,1.3,3,1.9,4.8,1.9
					c0.1,0,0.2,0,0.4,0c1.5-0.1,3-0.7,4.2-1.6c7.5-6.4,15.8-11.5,25.3-15.2c13.9-5.5,30.3-8.1,49.8-8.1c20.8,0,42.9,2.8,66.1,5.8
					c22.6,2.9,46,5.9,68.5,5.9c10.3,0,19.8-0.6,28.6-1.9c7-1,13.6-2.5,19.9-4.3c1.2,3.5,2.5,7,4,10.3c17.4,39,56,65.9,93.5,92
					c44.8,31.2,87.1,60.6,93,107.7c0.4,3.5,3.4,6.1,7,6.1h0.2c3.6-0.1,6.5-2.9,6.8-6.5c3.5-47.3,44.3-78.9,87.5-112.3
					c31.8-24.6,64.6-49.9,82.4-83c17.4,8.7,37.6,13,61.6,13c26,0,53.2-4.9,79.6-9.6c26.9-4.8,52.3-9.4,76-9.4
					c27.6,0,48.6,6.3,65.9,19.8c1.2,1,2.8,1.5,4.3,1.5c1.9,0,3.8-0.8,5.1-2.2c2.5-2.6,2.6-6.6,0.3-9.4c-31-36-24.4-87.1-17.5-141.2
					c5.1-39.8,10.3-81-0.4-117c44.7-14.7,73.9-56.8,102.2-97.5c31.2-44.8,60.6-87.1,107.7-93c3.6-0.4,6.2-3.5,6.1-7.1
					C1381.3,889,1378.5,886.1,1374.9,885.8z"/>
			</g>
		</g>
	</g>
	<g>
		
			<linearGradient id="SVGID_2_" gradientUnits="userSpaceOnUse" x1="5299.6655" y1="1027.4657" x2="5849.1123" y2="1027.4657" gradientTransform="matrix(0.9298 0.3682 -0.3682 0.9298 -3887.2334 -1954.3263)">
			<stop  offset="0" style="stop-color:#FF8202"/>
			<stop  offset="1" style="stop-color:#FBAD27"/>
		</linearGradient>
		<path class="st2" d="M738.4,759.6c51.3,39.6,49.6,115.1,90.6,162.4c9.4,10.8,20.1,20.5,28.5,32.1c13.3,18.3,20.2,40.4,28.7,61.5
			c12.4,30.7,29,60.1,51.4,84.7c17.8,19.5,55.5,35.7,64.9,60.6c4.9,13.1,1.5,27.7,0.4,41.6c-4.4,53.1,35.9,135.2,97.4,135.5
			c-29.6,0.7-54.3-12.6-77.9-29.5c-24.9-17.8-52.7-37.5-83-33.3c-28.8,4-34.9-3.3-55.8-22.1c-39.8-35.9-104.1-32.9-143.6-69.1
			c-12.2-11.2-21.1-25.4-32.8-37.1c-25.1-25.2-75-27.5-108.6-34.6C598.7,1112.4,738.4,759.6,738.4,759.6z"/>
		
			<linearGradient id="SVGID_3_" gradientUnits="userSpaceOnUse" x1="5299.6641" y1="1027.465" x2="5849.1143" y2="1027.465" gradientTransform="matrix(0.9298 0.3682 -0.3682 0.9298 -3887.2334 -1954.3263)">
			<stop  offset="0" style="stop-color:#FF8202"/>
			<stop  offset="0.5919" style="stop-color:#FBAD27"/>
		</linearGradient>
		<path class="st3" d="M1100.3,1338.1c-29.5,0.7-54.3-12.6-77.9-29.5c-24.9-17.8-52.6-37.5-83-33.3c-28.8,4-34.9-3.3-55.8-22.1
			c-39.8-35.9-104.1-32.9-143.5-69.1c-12.2-11.1-21.1-25.4-32.8-37.1c-25.1-25.2-75-27.5-108.6-34.6l139.7-352.8
			c51.3,39.6,49.6,115.1,90.6,162.4c9.4,10.8,20.1,20.5,28.5,32.1c13.3,18.3,20.2,40.4,28.7,61.5c12.4,30.7,29.1,60.1,51.4,84.7
			c17.8,19.5,55.5,35.7,64.9,60.6c4.9,13.1,1.6,27.7,0.4,41.6c-1.2,14.6,0.9,31.3,6,48C1022.2,1294.6,1055.6,1337.9,1100.3,1338.1z"
			/>
		<g>
			<path class="st4" d="M793.4,650.2l-1,2.5l-13.5,34.1l-1.3,3.3c0,0,0,0,0,0l-3.4,8.5l-6.5,16.5L763,727l-15.9,40.1h0l-26.3,66.4v0
				l-111.2,280.9l-64.1,161.9l-4.7,11.8l-11.3,28.7l-4.7,11.8l-4.8,12c-1.5-3.3-2.8-6.8-4-10.3c-6.3,1.9-12.9,3.3-19.9,4.3l6-15
				l4.7-11.8l11.3-28.7l4.7-11.8l175.9-444.1L740.3,718l4.7-11.8l6.5-16.5l4.7-11.8l0.8-2.1l12.7-32l1-2.5L793.4,650.2z"/>
			<g>
				<g class="st5">
					<radialGradient id="SVGID_4_" cx="814.9963" cy="569.1899" r="72.7617" gradientUnits="userSpaceOnUse">
						<stop  offset="1.639000e-02" style="stop-color:#F8F8F8"/>
						<stop  offset="0.4405" style="stop-color:#F6F6F6"/>
						<stop  offset="0.6471" style="stop-color:#EEEFEF"/>
						<stop  offset="0.8067" style="stop-color:#E1E3E2"/>
						<stop  offset="0.9414" style="stop-color:#CFD3D1"/>
						<stop  offset="1" style="stop-color:#C4C9C7"/>
					</radialGradient>
					<path class="st6" d="M850,486l25.5,31.5c-21.3,16.9-37.9,39.2-48,64.7c-8.8,22.2-12.4,46.5-10.5,70.2l-62.7-24.8
						c17.7-15.9,31.6-36.1,40.4-58.3c10-25.3,13.2-52.7,9.4-79.4L850,486z"/>
					<radialGradient id="SVGID_5_" cx="812.9942" cy="571.4351" r="86.2111" gradientUnits="userSpaceOnUse">
						<stop  offset="1.639000e-02" style="stop-color:#F8F8F8"/>
						<stop  offset="0.4405" style="stop-color:#F6F6F6"/>
						<stop  offset="0.6471" style="stop-color:#EEEFEF"/>
						<stop  offset="0.8067" style="stop-color:#E1E3E2"/>
						<stop  offset="0.9414" style="stop-color:#CFD3D1"/>
						<stop  offset="1" style="stop-color:#C4C9C7"/>
					</radialGradient>
					<path class="st7" d="M854.3,476.1l-61,5l-0.1,0.4c5.8,27.2,3.9,56.4-7.1,84.2c-10.4,26.2-27.4,47.7-48.4,63.3l-0.7,1.8l32.8,13
						l22.7,9l35.3,14l0.7-1.7c-4.6-25.8-2.3-53.2,8.1-79.3c11-27.8,29.6-50.4,52.5-66.2l0.1-0.4L854.3,476.1z M878.3,518.8
						c-21.5,16.7-38.1,39-48.2,64.4c-8.9,22.5-12.4,47.1-10.1,71.1l0.2,2.2l-71-28.1l1.7-1.5c18.1-15.9,32.4-36.2,41.4-58.7
						c10-25.3,13.1-52.8,9-79.5l-0.2-1.4l50.1-4.1l28.2,34.7L878.3,518.8z"/>
				</g>
			</g>
			<path class="st8" d="M797.5,707.9l-71.8-28.4c-1-0.4-1.5-1.6-1.1-2.6l3.2-8.1c0.4-1,1.6-1.5,2.6-1.1l71.8,28.4
				c1,0.4,1.5,1.6,1.1,2.6l-3.2,8.1C799.7,707.8,798.6,708.3,797.5,707.9z"/>
			<path class="st8" d="M781.6,734.4l-62.4-24.7c-1-0.4-1.5-1.6-1.1-2.6l3.2-8.1c0.4-1,1.6-1.5,2.6-1.1l62.4,24.7
				c1,0.4,1.5,1.6,1.1,2.6l-3.2,8.1C783.8,734.3,782.6,734.8,781.6,734.4z"/>
			<path class="st8" d="M565.4,1297.9l-71.8-28.4c-1-0.4-1.5-1.6-1.1-2.6l3.2-8.1c0.4-1,1.6-1.5,2.6-1.1L570,1286
				c1,0.4,1.5,1.6,1.1,2.6l-3.2,8.1C567.6,1297.8,566.4,1298.3,565.4,1297.9z"/>
			<path class="st8" d="M544.6,1336.5l-62.4-24.7c-1-0.4-1.5-1.6-1.1-2.6l3.2-8.1c0.4-1,1.6-1.5,2.6-1.1l62.4,24.7
				c1,0.4,1.5,1.6,1.1,2.6l-3.2,8.1C546.8,1336.4,545.6,1336.9,544.6,1336.5z"/>
		</g>
		<g>
			<g>
				<g>
					<path class="st9" d="M885.5,1072.7c-1.7-2.7-4.3-4.8-6.4-7.2c-0.3,0.2-0.7,0.5-1,0.7c1.4,3.6,3,7.1,4,10.8
						c1,3.7,2.2,7.6,2,11.4c-1.1,15.3-9.9,26.4-21.3,35.4c-11.8,9.3-26.1,13.1-40.6,15.9c-3.3,0.6-6.7,0.9-10.6,1.4
						c1.2-3,2.2-5.3,3-7.6c0.6-1.8,1.6-2.8,3.6-3.2c4.8-0.8,9.6-1.8,14.5-2.7c-0.1-2.1-0.3-4.4-0.5-7c18.5-0.6,32.9-8.4,39.9-25.5
						c7.1-17.3,1.9-33-10.8-46.5c1.1-1.2,2.1-2.4,2.6-3c-3.8-8.4-7.4-16.3-10.7-23.7c-7.6,3.1-15.7,6.4-24.2,9.8
						c0,1.1-0.1,2.7-0.1,4.3c-17.9,1.8-31.9,9.3-38.6,26.1c-6.9,17.2-1.9,32.5,10.6,45.9c-1.8,1.8-3.6,3.6-5,5.1
						c3.1,4.3,6.1,8.3,8.9,12.5c0.5,0.7,0.8,1.9,0.6,2.6c-0.9,2.8-2.1,5.6-3.4,8.7c-1.1-1-1.9-1.5-2.4-2.2
						c-4.5-6.4-9.3-12.7-13.4-19.4c-9.8-15.9-13.6-32.9-8.8-51.4c2.7-10.2,8-18,17.7-22.4c2.8-1.3,5.5-2.8,8.2-4.2
						c-1.3-0.9-2.4-1.3-3.5-1.2c-18.7,1.6-32.9,14.4-37.6,31c-4.3,15.1-3.9,30.4,0.8,45.6c2.7,8.7,6.8,17.4,3.2,27.3
						c1.1-0.2,1.7-0.3,2.3-0.5c5.7-2,11.4-4.1,17.1-6c1.1-0.3,2.9-0.4,3.6,0.2c2.6,2.3,4.9,5,7.2,7.5c-0.2,0.3-0.4,0.6-0.5,0.8
						c-1,0-2.1,0-3.1,0c-5.3,0-10.8,0.2-15.3,3.3c-2.3,1.6-4.3,4.1-5.7,6.6c-1.3,2.5,0.1,4.8,2.8,5.9c4.3,1.7,8.1-0.7,8.7-5.2
						c0.2-1.3,1-3.4,1.7-3.5c3.9-0.5,7.8-0.5,12.4-0.6c-1.9,4.8-3.3,8.6-4.9,12.4c-0.2,0.6-1,1.1-1.7,1.4c-6.3,2.9-5.8,9.9-0.2,13.6
						c2.5,1.6,7,1.5,9.5-0.3c2.5-1.8,3.7-4.2,2.5-7c-2.4-6.1,2.4-10.2,3.9-15.4c2.9,2.1,5.3,4.3,7.7,6.5c1.9,1.8,2.5,3.6,0.1,5.6
						c-2,1.7-2.1,4-1,6.2c1.2,2.3,3.2,4,5.9,3.8c2.8-0.2,4.1-2.4,4.6-4.8c0.4-1.6,0.4-3.4,0.1-5.1c-0.9-5.1-4-9-7.5-12.6
						c-1.3-1.4-2.7-2.8-4.6-4.8c2.9-0.4,5-0.7,7.1-0.9c4.2-0.5,6.7,1.2,8.3,5.2c2.2,5.1,5,9.9,7.5,14.7c2.4-2.7,4.2-5.7,6.8-7.6
						c5.4-3.9,11.1-7.4,16.8-10.8c15.5-9.3,27-22,32.6-39.4C895.5,1096.1,892.8,1084,885.5,1072.7z M855.8,1055.4
						c14.8,13,16.6,41.6-8.6,52.8c-4.7,2.1-9.6,3.4-14.6,5.1C829.9,1097.4,842.8,1065.7,855.8,1055.4z M796.2,1070.8
						c3.7-17.1,20.1-26.7,32.3-26c-1.2,21.2-5.6,41.1-21.5,56.7C799.7,1098.6,793.8,1081.7,796.2,1070.8z"/>
				</g>
			</g>
		</g>
	</g>
	<g>
		
			<linearGradient id="SVGID_6_" gradientUnits="userSpaceOnUse" x1="4998.5088" y1="715.9866" x2="5547.9985" y2="715.9866" gradientTransform="matrix(0.9688 0.2477 -0.2477 0.9688 -4197.2549 -1365.4689)">
			<stop  offset="0" style="stop-color:#FF8202"/>
			<stop  offset="1" style="stop-color:#FBAD27"/>
		</linearGradient>
		<path class="st10" d="M519.3,365.5c55.9,32.8,63.7,107.9,110.4,149.7c10.7,9.6,22.6,17.8,32.4,28.3c15.5,16.5,25.1,37.6,36.2,57.3
			c16.2,28.9,36.4,56,61.7,77.5c20.1,17.1,59.6,28.4,72,52c6.6,12.4,5,27.2,5.6,41.2c2.3,53.2,52.7,129.5,113.8,122.1
			c-29.2,4.5-55.5-5.6-81-19.4c-26.9-14.5-57-30.6-86.5-22.5c-28.1,7.6-35,1.2-58.1-14.9c-44-30.5-107.4-19.5-151.1-50.4
			c-13.5-9.5-24.2-22.5-37.2-32.6c-28.1-21.8-77.9-17.8-112.1-20.6C425.3,733.1,519.3,365.5,519.3,365.5z"/>
		
			<linearGradient id="SVGID_7_" gradientUnits="userSpaceOnUse" x1="4998.5088" y1="715.986" x2="5548.0005" y2="715.986" gradientTransform="matrix(0.9688 0.2477 -0.2477 0.9688 -4197.2549 -1365.4689)">
			<stop  offset="0" style="stop-color:#FF8202"/>
			<stop  offset="0.5919" style="stop-color:#FBAD27"/>
		</linearGradient>
		<path class="st11" d="M951.4,893.6c-29.2,4.4-55.5-5.7-81-19.4c-26.9-14.5-57-30.6-86.5-22.6c-28.1,7.7-35,1.2-58.1-14.9
			c-44-30.6-107.4-19.5-151.1-50.4c-13.5-9.5-24.1-22.5-37.2-32.6c-28.1-21.8-77.8-17.8-112.1-20.6l94-367.6
			c55.9,32.8,63.7,107.9,110.4,149.7c10.7,9.6,22.5,17.8,32.4,28.3c15.5,16.5,25.1,37.6,36.2,57.3c16.2,28.9,36.4,56,61.7,77.5
			c20.1,17.1,59.6,28.4,72,52c6.5,12.4,5,27.2,5.6,41.2c0.6,14.6,4.9,31,12,46.8C868.4,860.3,907.1,899,951.4,893.6z"/>
		<g>
			<path class="st4" d="M560,250l-0.7,2.6l-9.1,35.5l-3.1,12.3l-4.4,17.2l-3.1,12.3l-10.7,41.8v0l-11.2,44l-81.3,317.9v0
				l-43.1,168.7l-3.1,12.3l-7.6,29.9l-3.2,12.3L283.1,1333c-9.5,3.7-17.8,8.8-25.3,15.2c-1.2,1-2.6,1.6-4.2,1.6l102-399l3.1-12.3
				l7.6-29.9l3.1-12.3L493,413.6l22.9-89.6l3.1-12.3l4.4-17.2l3.1-12.3l9.1-35.5l0.7-2.6L560,250z"/>
			<g>
				<g class="st5">
					<radialGradient id="SVGID_8_" cx="571.6385" cy="164.5441" r="70.6381" gradientUnits="userSpaceOnUse">
						<stop  offset="1.639000e-02" style="stop-color:#F8F8F8"/>
						<stop  offset="0.4405" style="stop-color:#F6F6F6"/>
						<stop  offset="0.6471" style="stop-color:#EEEFEF"/>
						<stop  offset="0.8067" style="stop-color:#E1E3E2"/>
						<stop  offset="0.9414" style="stop-color:#CFD3D1"/>
						<stop  offset="1" style="stop-color:#C4C9C7"/>
					</radialGradient>
					<path class="st12" d="M595.5,80l29.3,28c-19,19.4-32.6,43.7-39.4,70.2c-5.9,23.2-6.4,47.7-1.5,70.9l-65.4-16.7
						c15.5-18.1,26.8-39.8,32.7-63c6.7-26.3,6.5-54-0.7-80L595.5,80z"/>
					<radialGradient id="SVGID_9_" cx="569.9542" cy="165.8398" r="83.4631" gradientUnits="userSpaceOnUse">
						<stop  offset="1.639000e-02" style="stop-color:#F8F8F8"/>
						<stop  offset="0.4405" style="stop-color:#F6F6F6"/>
						<stop  offset="0.6471" style="stop-color:#EEEFEF"/>
						<stop  offset="0.8067" style="stop-color:#E1E3E2"/>
						<stop  offset="0.9414" style="stop-color:#CFD3D1"/>
						<stop  offset="1" style="stop-color:#C4C9C7"/>
					</radialGradient>
					<path class="st13" d="M598.4,69.6l-59.9,12.7l-0.1,0.4c9.2,26.3,11,55.4,3.6,84.4c-7,27.2-21.2,50.8-40,69l-0.4,1.8l34.1,8.7
						l23.6,6l36.8,9.4l0.5-1.8c-7.8-25-9-52.5-2-79.7c7.4-29,23-53.7,43.7-72.3l0.1-0.4L598.4,69.6z M627.7,108.9
						c-19.2,19.3-32.9,43.5-39.7,70c-6,23.5-6.3,48.3-1,71.8l0.5,2.2L513.5,234l1.5-1.7c16-18,27.6-40,33.6-63.5
						c6.7-26.4,6.4-54-1.1-80l-0.4-1.4L596.3,77l32.4,30.9L627.7,108.9z"/>
				</g>
			</g>
			<path class="st8" d="M571.4,306.7l-74.9-19.1c-1.1-0.3-1.7-1.4-1.5-2.5l2.1-8.4c0.3-1.1,1.4-1.7,2.5-1.5l74.9,19.1
				c1.1,0.3,1.7,1.4,1.5,2.5l-2.1,8.4C573.6,306.3,572.5,307,571.4,306.7z"/>
			<path class="st8" d="M558.9,335l-65-16.6c-1.1-0.3-1.7-1.4-1.5-2.5l2.1-8.4c0.3-1.1,1.4-1.7,2.5-1.5l65,16.6
				c1.1,0.3,1.7,1.4,1.5,2.5l-2.1,8.4C561.1,334.6,560,335.3,558.9,335z"/>
			<path class="st8" d="M415.7,921.3l-74.9-19.1c-1.1-0.3-1.7-1.4-1.5-2.5l2.1-8.4c0.3-1.1,1.4-1.7,2.5-1.5l74.9,19.1
				c1.1,0.3,1.7,1.4,1.5,2.5l-2.1,8.4C417.9,920.9,416.7,921.5,415.7,921.3z"/>
			<path class="st8" d="M400,962.2l-65-16.6c-1.1-0.3-1.7-1.4-1.5-2.5l2.1-8.4c0.3-1.1,1.4-1.7,2.5-1.5l65,16.6
				c1.1,0.3,1.7,1.4,1.5,2.5l-2.1,8.4C402.1,961.8,401,962.5,400,962.2z"/>
		</g>
		<g>
			<g>
				<g>
					<path class="st9" d="M704.8,657.5c-2.1-2.4-4.8-4.2-7.3-6.4c-0.3,0.3-0.6,0.6-0.9,0.8c1.8,3.4,3.8,6.7,5.3,10.2
						c1.5,3.5,3.2,7.3,3.4,11c0.9,15.3-6.5,27.4-16.7,37.8c-10.5,10.7-24.2,16.3-38.3,20.9c-3.2,1-6.5,1.7-10.3,2.7
						c0.8-3.1,1.5-5.5,2-7.9c0.4-1.9,1.2-3,3.2-3.6c4.7-1.4,9.3-3,14-4.5c-0.4-2-0.9-4.3-1.4-6.9c18.3-2.9,31.6-12.5,36.4-30.3
						c4.9-18-2.3-32.9-16.5-44.7c0.9-1.4,1.8-2.7,2.2-3.3c-4.8-7.8-9.4-15.2-13.7-22.2c-7.2,4-14.8,8.3-22.7,12.8
						c0.1,1.1,0.3,2.7,0.4,4.2c-17.6,4-30.4,13.3-34.9,30.8c-4.7,18,2.2,32.5,16.3,44.2c-1.5,2-3.1,4-4.3,5.7
						c3.6,3.8,7.1,7.5,10.5,11.2c0.6,0.6,1,1.8,0.9,2.5c-0.6,2.9-1.4,5.8-2.2,9.1c-1.2-0.8-2.1-1.2-2.7-1.9
						c-5.3-5.8-10.8-11.5-15.7-17.6c-11.7-14.5-17.6-30.9-15.2-49.9c1.4-10.5,5.6-18.8,14.8-24.5c2.6-1.6,5.1-3.5,7.6-5.2
						c-1.4-0.8-2.6-1-3.6-0.8c-18.3,4-30.8,18.4-33.4,35.5c-2.3,15.5,0,30.7,6.5,45.2c3.8,8.3,9,16.4,6.6,26.7
						c1.1-0.4,1.7-0.5,2.2-0.8c5.4-2.7,10.8-5.5,16.2-8.1c1-0.5,2.8-0.8,3.6-0.2c2.9,2,5.5,4.3,8.1,6.5c-0.1,0.3-0.3,0.6-0.4,0.9
						c-1,0.1-2.1,0.3-3.1,0.5c-5.3,0.7-10.6,1.6-14.7,5.2c-2.1,1.9-3.8,4.6-4.8,7.3c-1,2.6,0.8,4.8,3.6,5.5c4.4,1.2,8-1.7,8-6.2
						c0-1.3,0.5-3.5,1.2-3.7c3.8-1,7.7-1.5,12.3-2.2c-1.3,5-2.2,8.9-3.4,12.9c-0.2,0.6-0.9,1.2-1.5,1.6c-5.9,3.6-4.5,10.6,1.5,13.5
						c2.6,1.3,7.1,0.6,9.4-1.5c2.2-2.1,3.1-4.6,1.6-7.3c-3.2-5.8,1.1-10.4,2-15.8c3.2,1.7,5.8,3.6,8.5,5.5c2.2,1.5,2.9,3.2,0.9,5.5
						c-1.8,2-1.6,4.2-0.2,6.3c1.5,2.1,3.6,3.5,6.4,3c2.8-0.5,3.7-2.9,3.9-5.3c0.2-1.7,0-3.5-0.5-5.1c-1.5-5-5.1-8.4-9-11.6
						c-1.5-1.2-3.1-2.5-5.2-4.1c2.8-0.7,4.9-1.3,6.9-1.8c4.1-1.1,6.8,0.3,8.9,4.1c2.8,4.8,6.2,9.2,9.2,13.6c2-3,3.4-6.1,5.8-8.4
						c4.8-4.6,10.1-8.7,15.3-12.9c14.2-11.2,24-25.2,27.4-43.2C717.6,679.5,713.5,667.7,704.8,657.5z M673.1,644
						c16.3,11.1,21.7,39.2-1.8,53.5c-4.3,2.6-9.1,4.6-13.8,6.9C652.8,689,661.6,655.9,673.1,644z M630.5,695.9
						c-7.6-1.9-15.5-18-14.6-29.1c1.5-17.4,16.6-29.1,28.8-29.9C646.3,658.1,644.4,678.5,630.5,695.9z"/>
				</g>
			</g>
		</g>
	</g>
</g>
<radialGradient id="SVGID_10_" cx="5041.4204" cy="-9670.8115" r="26.6553" gradientTransform="matrix(0.7776 0 0 0.7776 -3860.386 8067.1743)" gradientUnits="userSpaceOnUse">
	<stop  offset="0" style="stop-color:#FFFFFF"/>
	<stop  offset="0.6011" style="stop-color:#FFFFE7;stop-opacity:0.3889"/>
	<stop  offset="0.9836" style="stop-color:#FFFFDD;stop-opacity:0"/>
</radialGradient>
<circle class="st14" cx="59.8" cy="547.2" r="20.7"/>
<radialGradient id="SVGID_11_" cx="5041.4204" cy="-10245.2373" r="39.6705" gradientTransform="matrix(0.7776 0 0 0.7776 -3860.386 8067.1743)" gradientUnits="userSpaceOnUse">
	<stop  offset="0" style="stop-color:#FFFFFF"/>
	<stop  offset="0.6011" style="stop-color:#FFFFE7;stop-opacity:0.3889"/>
	<stop  offset="0.9836" style="stop-color:#FFFFDD;stop-opacity:0"/>
</radialGradient>
<circle class="st15" cx="59.8" cy="100.5" r="30.8"/>
<radialGradient id="SVGID_12_" cx="6270.5356" cy="-9974.5459" r="24.2096" gradientTransform="matrix(0.7776 0 0 0.7776 -3860.386 8067.1743)" gradientUnits="userSpaceOnUse">
	<stop  offset="0" style="stop-color:#FFFFFF"/>
	<stop  offset="0.6011" style="stop-color:#FFFFE7;stop-opacity:0.3889"/>
	<stop  offset="0.9836" style="stop-color:#FFFFDD;stop-opacity:0"/>
</radialGradient>
<circle class="st16" cx="1015.6" cy="311" r="18.8"/>
<radialGradient id="SVGID_13_" cx="5399.394" cy="-10037.4541" r="23.2379" gradientTransform="matrix(0.7776 0 0 0.7776 -3860.386 8067.1743)" gradientUnits="userSpaceOnUse">
	<stop  offset="0" style="stop-color:#FFFFFF"/>
	<stop  offset="0.6011" style="stop-color:#FFFFE7;stop-opacity:0.3889"/>
	<stop  offset="0.9836" style="stop-color:#FFFFDD;stop-opacity:0"/>
</radialGradient>
<circle class="st17" cx="338.2" cy="262" r="18.1"/>
<radialGradient id="SVGID_14_" cx="6113.2515" cy="-10221.999" r="23.238" gradientTransform="matrix(0.7776 0 0 0.7776 -3860.386 8067.1743)" gradientUnits="userSpaceOnUse">
	<stop  offset="0" style="stop-color:#FFFFFF"/>
	<stop  offset="0.6011" style="stop-color:#FFFFE7;stop-opacity:0.3889"/>
	<stop  offset="0.9836" style="stop-color:#FFFFDD;stop-opacity:0"/>
</radialGradient>
<circle class="st18" cx="893.3" cy="118.5" r="18.1"/>
<radialGradient id="SVGID_15_" cx="6833.1255" cy="-9397.5557" r="23.2379" gradientTransform="matrix(0.7776 0 0 0.7776 -3860.386 8067.1743)" gradientUnits="userSpaceOnUse">
	<stop  offset="0" style="stop-color:#FFFFFF"/>
	<stop  offset="0.6011" style="stop-color:#FFFFE7;stop-opacity:0.3889"/>
	<stop  offset="0.9836" style="stop-color:#FFFFDD;stop-opacity:0"/>
</radialGradient>
<circle class="st19" cx="1453.1" cy="759.6" r="18.1"/>
<radialGradient id="SVGID_16_" cx="6833.1255" cy="-10205.5664" r="23.2379" gradientTransform="matrix(0.7776 0 0 0.7776 -3860.386 8067.1743)" gradientUnits="userSpaceOnUse">
	<stop  offset="0" style="stop-color:#FFFFFF"/>
	<stop  offset="0.6011" style="stop-color:#FFFFE7;stop-opacity:0.3889"/>
	<stop  offset="0.9836" style="stop-color:#FFFFDD;stop-opacity:0"/>
</radialGradient>
<circle class="st20" cx="1453.1" cy="131.3" r="18.1"/>
</svg>
