<?xml version="1.0" encoding="utf-8"?>
<!-- Generator: Adobe Illustrator 24.3.0, SVG Export Plug-In . SVG Version: 6.00 Build 0)  -->
<svg version="1.1" id="Layer_1" xmlns="http://www.w3.org/2000/svg" xmlns:xlink="http://www.w3.org/1999/xlink" x="0px" y="0px"
	 viewBox="0 0 222.4 747.5" style="enable-background:new 0 0 222.4 747.5;" xml:space="preserve">
<style type="text/css">
	.st0{display:none;fill:url(#SVGID_1_);}
	.st1{display:none;}
	.st2{display:inline;filter:url(#Adobe_OpacityMaskFilter);}
	.st3{filter:url(#Adobe_OpacityMaskFilter_1_);}
	.st4{mask:url(#SVGID_2_);fill:url(#SVGID_3_);}
	.st5{display:inline;fill:url(#SVGID_4_);}
	.st6{display:inline;filter:url(#Adobe_OpacityMaskFilter_2_);}
	.st7{filter:url(#Adobe_OpacityMaskFilter_3_);}
	.st8{mask:url(#SVGID_5_);fill:url(#SVGID_6_);}
	.st9{display:inline;fill:url(#SVGID_7_);}
	.st10{display:inline;filter:url(#Adobe_OpacityMaskFilter_4_);}
	.st11{filter:url(#Adobe_OpacityMaskFilter_5_);}
	.st12{mask:url(#SVGID_8_);fill:url(#SVGID_9_);}
	.st13{display:inline;fill:url(#SVGID_10_);}
	.st14{display:inline;filter:url(#Adobe_OpacityMaskFilter_6_);}
	.st15{filter:url(#Adobe_OpacityMaskFilter_7_);}
	.st16{mask:url(#SVGID_11_);fill:url(#SVGID_12_);}
	.st17{display:inline;fill:url(#SVGID_13_);}
	.st18{display:inline;filter:url(#Adobe_OpacityMaskFilter_8_);}
	.st19{filter:url(#Adobe_OpacityMaskFilter_9_);}
	.st20{mask:url(#SVGID_14_);fill:url(#SVGID_15_);}
	.st21{display:inline;fill:url(#SVGID_16_);}
	.st22{display:inline;filter:url(#Adobe_OpacityMaskFilter_10_);}
	.st23{filter:url(#Adobe_OpacityMaskFilter_11_);}
	.st24{mask:url(#SVGID_17_);fill:url(#SVGID_18_);}
	.st25{display:inline;fill:url(#SVGID_19_);}
	.st26{display:inline;fill:url(#SVGID_20_);}
	.st27{display:inline;fill:url(#SVGID_21_);}
	.st28{display:inline;}
	.st29{fill:url(#SVGID_22_);}
	.st30{opacity:0.82;}
	.st31{fill:url(#SVGID_23_);}
	.st32{fill:url(#SVGID_24_);}
	.st33{fill:url(#SVGID_25_);}
	.st34{fill:url(#SVGID_26_);}
	.st35{fill:url(#SVGID_27_);}
	.st36{fill:url(#SVGID_28_);}
	.st37{fill:#FFFFFF;}
	.st38{display:inline;fill:url(#SVGID_29_);}
	.st39{display:inline;fill:url(#SVGID_30_);}
	.st40{fill:url(#SVGID_31_);}
	.st41{fill:url(#SVGID_32_);}
	.st42{fill:url(#SVGID_33_);}
	.st43{fill:url(#SVGID_34_);}
	.st44{fill:url(#SVGID_35_);}
	.st45{fill:url(#SVGID_36_);}
	.st46{fill:url(#SVGID_37_);}
	.st47{fill:#F9F9F9;}
	.st48{display:inline;fill:url(#SVGID_38_);}
	.st49{fill:url(#SVGID_39_);}
	.st50{fill:url(#SVGID_40_);}
	.st51{fill:url(#SVGID_41_);}
	.st52{fill:url(#SVGID_42_);}
	.st53{fill:url(#SVGID_43_);}
	.st54{fill:url(#SVGID_44_);}
	.st55{fill:url(#SVGID_45_);}
	.st56{fill:url(#SVGID_46_);}
	.st57{fill:url(#SVGID_47_);}
	.st58{fill:url(#SVGID_48_);}
	.st59{fill:url(#SVGID_49_);}
	.st60{fill:url(#SVGID_50_);}
	.st61{fill:url(#SVGID_51_);}
	.st62{fill:url(#SVGID_52_);}
	.st63{fill:url(#SVGID_53_);}
	.st64{fill:url(#SVGID_54_);}
	.st65{fill:url(#SVGID_55_);}
	.st66{fill:url(#SVGID_56_);}
	.st67{fill:url(#SVGID_57_);}
	.st68{fill:url(#SVGID_58_);}
	.st69{fill:url(#SVGID_59_);}
	.st70{fill:url(#SVGID_60_);}
	.st71{fill:url(#SVGID_61_);}
	.st72{fill:url(#SVGID_62_);}
	.st73{fill:url(#SVGID_63_);}
	.st74{fill:url(#SVGID_64_);}
	.st75{fill:url(#SVGID_65_);}
	.st76{fill:url(#SVGID_66_);}
	.st77{fill:url(#SVGID_67_);}
	.st78{fill:url(#SVGID_68_);}
	.st79{fill:url(#SVGID_69_);}
	.st80{fill:url(#SVGID_70_);}
	.st81{fill:url(#SVGID_71_);}
	.st82{fill:url(#SVGID_72_);}
	.st83{fill:url(#SVGID_73_);}
	.st84{fill:url(#SVGID_74_);}
	.st85{fill:url(#SVGID_75_);}
	.st86{fill:url(#SVGID_76_);}
	.st87{fill:url(#SVGID_77_);}
	.st88{fill:url(#SVGID_78_);}
	.st89{fill:url(#SVGID_79_);}
	.st90{fill:url(#SVGID_80_);}
	.st91{fill:url(#SVGID_81_);}
	.st92{fill:url(#SVGID_82_);}
	.st93{fill:url(#SVGID_83_);}
	.st94{fill:url(#SVGID_84_);}
</style>
<radialGradient id="SVGID_1_" cx="848.4257" cy="1000" r="1000" gradientUnits="userSpaceOnUse">
	<stop  offset="0" style="stop-color:#093041"/>
	<stop  offset="0.2703" style="stop-color:#092D3D"/>
	<stop  offset="0.5564" style="stop-color:#092430"/>
	<stop  offset="0.8489" style="stop-color:#0A151B"/>
	<stop  offset="1" style="stop-color:#0A0B0D"/>
</radialGradient>
<rect x="-151.6" class="st0" width="2000" height="2000"/>
<g class="st1">
	<defs>
		<filter id="Adobe_OpacityMaskFilter" filterUnits="userSpaceOnUse" x="507.4" y="576.5" width="682.1" height="682.1">
			<feFlood  style="flood-color:white;flood-opacity:1" result="back"/>
			<feBlend  in="SourceGraphic" in2="back" mode="normal"/>
		</filter>
	</defs>
	<mask maskUnits="userSpaceOnUse" x="507.4" y="576.5" width="682.1" height="682.1" id="SVGID_2_" class="st28">
		<g style="filter:url(#Adobe_OpacityMaskFilter);">
			<defs>
				<filter id="Adobe_OpacityMaskFilter_1_" filterUnits="userSpaceOnUse" x="507.4" y="576.5" width="682.1" height="682.1">
					<feFlood  style="flood-color:white;flood-opacity:1" result="back"/>
					<feBlend  in="SourceGraphic" in2="back" mode="normal"/>
				</filter>
			</defs>
			<mask maskUnits="userSpaceOnUse" x="507.4" y="576.5" width="682.1" height="682.1" id="SVGID_2_">
				<g class="st3">
				</g>
			</mask>
			<radialGradient id="SVGID_3_" cx="848.4281" cy="917.5364" r="341.0641" gradientUnits="userSpaceOnUse">
				<stop  offset="0" style="stop-color:#FFFFFF"/>
				<stop  offset="0.1227" style="stop-color:#D6D6D6"/>
				<stop  offset="0.3626" style="stop-color:#8B8B8B"/>
				<stop  offset="0.5773" style="stop-color:#4F4F4F"/>
				<stop  offset="0.7587" style="stop-color:#242424"/>
				<stop  offset="0.9" style="stop-color:#0A0A0A"/>
				<stop  offset="0.9836" style="stop-color:#000000"/>
			</radialGradient>
			<circle class="st4" cx="848.4" cy="917.5" r="341.1"/>
		</g>
	</mask>
	<radialGradient id="SVGID_4_" cx="848.4281" cy="917.5364" r="341.0641" gradientUnits="userSpaceOnUse">
		<stop  offset="0" style="stop-color:#FFFFDD"/>
		<stop  offset="0.9836" style="stop-color:#FFFFDD"/>
	</radialGradient>
	<circle class="st5" cx="848.4" cy="917.5" r="341.1"/>
</g>
<g class="st1">
	<defs>
		<filter id="Adobe_OpacityMaskFilter_2_" filterUnits="userSpaceOnUse" x="995.2" y="262" width="25.6" height="25.6">
			<feFlood  style="flood-color:white;flood-opacity:1" result="back"/>
			<feBlend  in="SourceGraphic" in2="back" mode="normal"/>
		</filter>
	</defs>
	<mask maskUnits="userSpaceOnUse" x="995.2" y="262" width="25.6" height="25.6" id="SVGID_5_" class="st28">
		<g style="filter:url(#Adobe_OpacityMaskFilter_2_);">
			<defs>
				<filter id="Adobe_OpacityMaskFilter_3_" filterUnits="userSpaceOnUse" x="995.2" y="262" width="25.6" height="25.6">
					<feFlood  style="flood-color:white;flood-opacity:1" result="back"/>
					<feBlend  in="SourceGraphic" in2="back" mode="normal"/>
				</filter>
			</defs>
			<mask maskUnits="userSpaceOnUse" x="995.2" y="262" width="25.6" height="25.6" id="SVGID_5_">
				<g class="st7">
				</g>
			</mask>
			<radialGradient id="SVGID_6_" cx="1008.0357" cy="274.7661" r="12.8139" gradientUnits="userSpaceOnUse">
				<stop  offset="0" style="stop-color:#FFFFFF"/>
				<stop  offset="0.1227" style="stop-color:#D6D6D6"/>
				<stop  offset="0.3626" style="stop-color:#8B8B8B"/>
				<stop  offset="0.5773" style="stop-color:#4F4F4F"/>
				<stop  offset="0.7587" style="stop-color:#242424"/>
				<stop  offset="0.9" style="stop-color:#0A0A0A"/>
				<stop  offset="0.9836" style="stop-color:#000000"/>
			</radialGradient>
			<circle class="st8" cx="1008" cy="274.8" r="12.8"/>
		</g>
	</mask>
	<radialGradient id="SVGID_7_" cx="1008.0357" cy="274.7661" r="12.8139" gradientUnits="userSpaceOnUse">
		<stop  offset="0" style="stop-color:#FFFFDD"/>
		<stop  offset="0.9836" style="stop-color:#FFFFDD"/>
	</radialGradient>
	<circle class="st9" cx="1008" cy="274.8" r="12.8"/>
</g>
<g class="st1">
	<defs>
		<filter id="Adobe_OpacityMaskFilter_4_" filterUnits="userSpaceOnUse" x="660.9" y="478" width="18.6" height="18.6">
			<feFlood  style="flood-color:white;flood-opacity:1" result="back"/>
			<feBlend  in="SourceGraphic" in2="back" mode="normal"/>
		</filter>
	</defs>
	<mask maskUnits="userSpaceOnUse" x="660.9" y="478" width="18.6" height="18.6" id="SVGID_8_" class="st28">
		<g style="filter:url(#Adobe_OpacityMaskFilter_4_);">
			<defs>
				<filter id="Adobe_OpacityMaskFilter_5_" filterUnits="userSpaceOnUse" x="660.9" y="478" width="18.6" height="18.6">
					<feFlood  style="flood-color:white;flood-opacity:1" result="back"/>
					<feBlend  in="SourceGraphic" in2="back" mode="normal"/>
				</filter>
			</defs>
			<mask maskUnits="userSpaceOnUse" x="660.9" y="478" width="18.6" height="18.6" id="SVGID_8_">
				<g class="st11">
				</g>
			</mask>
			<radialGradient id="SVGID_9_" cx="670.2271" cy="487.322" r="9.3162" gradientUnits="userSpaceOnUse">
				<stop  offset="0" style="stop-color:#FFFFFF"/>
				<stop  offset="0.1227" style="stop-color:#D6D6D6"/>
				<stop  offset="0.3626" style="stop-color:#8B8B8B"/>
				<stop  offset="0.5773" style="stop-color:#4F4F4F"/>
				<stop  offset="0.7587" style="stop-color:#242424"/>
				<stop  offset="0.9" style="stop-color:#0A0A0A"/>
				<stop  offset="0.9836" style="stop-color:#000000"/>
			</radialGradient>
			<circle class="st12" cx="670.2" cy="487.3" r="9.3"/>
		</g>
	</mask>
	<radialGradient id="SVGID_10_" cx="670.2271" cy="487.322" r="9.3162" gradientUnits="userSpaceOnUse">
		<stop  offset="0" style="stop-color:#FFFFDD"/>
		<stop  offset="0.9836" style="stop-color:#FFFFDD"/>
	</radialGradient>
	<circle class="st13" cx="670.2" cy="487.3" r="9.3"/>
</g>
<g class="st1">
	<defs>
		<filter id="Adobe_OpacityMaskFilter_6_" filterUnits="userSpaceOnUse" x="631.8" y="99.2" width="25.6" height="25.6">
			<feFlood  style="flood-color:white;flood-opacity:1" result="back"/>
			<feBlend  in="SourceGraphic" in2="back" mode="normal"/>
		</filter>
	</defs>
	<mask maskUnits="userSpaceOnUse" x="631.8" y="99.2" width="25.6" height="25.6" id="SVGID_11_" class="st28">
		<g style="filter:url(#Adobe_OpacityMaskFilter_6_);">
			<defs>
				<filter id="Adobe_OpacityMaskFilter_7_" filterUnits="userSpaceOnUse" x="631.8" y="99.2" width="25.6" height="25.6">
					<feFlood  style="flood-color:white;flood-opacity:1" result="back"/>
					<feBlend  in="SourceGraphic" in2="back" mode="normal"/>
				</filter>
			</defs>
			<mask maskUnits="userSpaceOnUse" x="631.8" y="99.2" width="25.6" height="25.6" id="SVGID_11_">
				<g class="st15">
				</g>
			</mask>
			<radialGradient id="SVGID_12_" cx="644.5992" cy="111.9998" r="12.8139" gradientUnits="userSpaceOnUse">
				<stop  offset="0" style="stop-color:#FFFFFF"/>
				<stop  offset="0.1227" style="stop-color:#D6D6D6"/>
				<stop  offset="0.3626" style="stop-color:#8B8B8B"/>
				<stop  offset="0.5773" style="stop-color:#4F4F4F"/>
				<stop  offset="0.7587" style="stop-color:#242424"/>
				<stop  offset="0.9" style="stop-color:#0A0A0A"/>
				<stop  offset="0.9836" style="stop-color:#000000"/>
			</radialGradient>
			<circle class="st16" cx="644.6" cy="112" r="12.8"/>
		</g>
	</mask>
	<radialGradient id="SVGID_13_" cx="644.5992" cy="111.9998" r="12.8139" gradientUnits="userSpaceOnUse">
		<stop  offset="0" style="stop-color:#FFFFDD"/>
		<stop  offset="0.9836" style="stop-color:#FFFFDD"/>
	</radialGradient>
	<circle class="st17" cx="644.6" cy="112" r="12.8"/>
</g>
<g class="st1">
	<defs>
		<filter id="Adobe_OpacityMaskFilter_8_" filterUnits="userSpaceOnUse" x="213.5" y="272.9" width="25.6" height="25.6">
			<feFlood  style="flood-color:white;flood-opacity:1" result="back"/>
			<feBlend  in="SourceGraphic" in2="back" mode="normal"/>
		</filter>
	</defs>
	<mask maskUnits="userSpaceOnUse" x="213.5" y="272.9" width="25.6" height="25.6" id="SVGID_14_" class="st28">
		<g style="filter:url(#Adobe_OpacityMaskFilter_8_);">
			<defs>
				<filter id="Adobe_OpacityMaskFilter_9_" filterUnits="userSpaceOnUse" x="213.5" y="272.9" width="25.6" height="25.6">
					<feFlood  style="flood-color:white;flood-opacity:1" result="back"/>
					<feBlend  in="SourceGraphic" in2="back" mode="normal"/>
				</filter>
			</defs>
			<mask maskUnits="userSpaceOnUse" x="213.5" y="272.9" width="25.6" height="25.6" id="SVGID_14_">
				<g class="st19">
				</g>
			</mask>
			<radialGradient id="SVGID_15_" cx="226.278" cy="285.6664" r="12.8139" gradientUnits="userSpaceOnUse">
				<stop  offset="0" style="stop-color:#FFFFFF"/>
				<stop  offset="0.1227" style="stop-color:#D6D6D6"/>
				<stop  offset="0.3626" style="stop-color:#8B8B8B"/>
				<stop  offset="0.5773" style="stop-color:#4F4F4F"/>
				<stop  offset="0.7587" style="stop-color:#242424"/>
				<stop  offset="0.9" style="stop-color:#0A0A0A"/>
				<stop  offset="0.9836" style="stop-color:#000000"/>
			</radialGradient>
			<circle class="st20" cx="226.3" cy="285.7" r="12.8"/>
		</g>
	</mask>
	<radialGradient id="SVGID_16_" cx="226.278" cy="285.6664" r="12.8139" gradientUnits="userSpaceOnUse">
		<stop  offset="0" style="stop-color:#FFFFDD"/>
		<stop  offset="0.9836" style="stop-color:#FFFFDD"/>
	</radialGradient>
	<circle class="st21" cx="226.3" cy="285.7" r="12.8"/>
</g>
<g class="st1">
	<defs>
		<filter id="Adobe_OpacityMaskFilter_10_" filterUnits="userSpaceOnUse" x="1433.3" y="112" width="25.6" height="25.6">
			<feFlood  style="flood-color:white;flood-opacity:1" result="back"/>
			<feBlend  in="SourceGraphic" in2="back" mode="normal"/>
		</filter>
	</defs>
	<mask maskUnits="userSpaceOnUse" x="1433.3" y="112" width="25.6" height="25.6" id="SVGID_17_" class="st28">
		<g style="filter:url(#Adobe_OpacityMaskFilter_10_);">
			<defs>
				<filter id="Adobe_OpacityMaskFilter_11_" filterUnits="userSpaceOnUse" x="1433.3" y="112" width="25.6" height="25.6">
					<feFlood  style="flood-color:white;flood-opacity:1" result="back"/>
					<feBlend  in="SourceGraphic" in2="back" mode="normal"/>
				</filter>
			</defs>
			<mask maskUnits="userSpaceOnUse" x="1433.3" y="112" width="25.6" height="25.6" id="SVGID_17_">
				<g class="st23">
				</g>
			</mask>
			<radialGradient id="SVGID_18_" cx="1446.1016" cy="124.8138" r="12.8139" gradientUnits="userSpaceOnUse">
				<stop  offset="0" style="stop-color:#FFFFFF"/>
				<stop  offset="0.1227" style="stop-color:#D6D6D6"/>
				<stop  offset="0.3626" style="stop-color:#8B8B8B"/>
				<stop  offset="0.5773" style="stop-color:#4F4F4F"/>
				<stop  offset="0.7587" style="stop-color:#242424"/>
				<stop  offset="0.9" style="stop-color:#0A0A0A"/>
				<stop  offset="0.9836" style="stop-color:#000000"/>
			</radialGradient>
			<circle class="st24" cx="1446.1" cy="124.8" r="12.8"/>
		</g>
	</mask>
	<radialGradient id="SVGID_19_" cx="1446.1016" cy="124.8138" r="12.8139" gradientUnits="userSpaceOnUse">
		<stop  offset="0" style="stop-color:#FFFFDD"/>
		<stop  offset="0.9836" style="stop-color:#FFFFDD"/>
	</radialGradient>
	<circle class="st25" cx="1446.1" cy="124.8" r="12.8"/>
</g>
<g class="st1">
	<g>
		
			<linearGradient id="SVGID_20_" gradientUnits="userSpaceOnUse" x1="70.1134" y1="1688.6949" x2="281.3902" y2="1688.6949" gradientTransform="matrix(0.9298 0.3682 -0.3682 0.9298 1779.7653 -1222.5975)">
			<stop  offset="0" style="stop-color:#FF8202"/>
			<stop  offset="1" style="stop-color:#FBAD27"/>
		</linearGradient>
		<path class="st26" d="M1252.5,299.3c19.7,15.2,19.1,44.2,34.8,62.5c3.6,4.2,7.7,7.9,11,12.4c5.1,7.1,7.8,15.5,11,23.6
			c4.8,11.8,11.2,23.1,19.8,32.6c6.8,7.5,21.3,13.7,24.9,23.3c1.9,5,0.6,10.6,0.1,16c-1.7,20.4,13.8,52,37.5,52.1
			c-11.4,0.3-20.9-4.9-30-11.3c-9.6-6.8-20.2-14.4-31.9-12.8c-11.1,1.5-13.4-1.3-21.4-8.5c-15.3-13.8-40-12.7-55.2-26.6
			c-4.7-4.3-8.1-9.8-12.6-14.3c-9.7-9.7-28.8-10.6-41.8-13.3C1198.8,434.9,1252.5,299.3,1252.5,299.3z"/>
		
			<linearGradient id="SVGID_21_" gradientUnits="userSpaceOnUse" x1="70.1127" y1="1688.6948" x2="281.391" y2="1688.6948" gradientTransform="matrix(0.9298 0.3682 -0.3682 0.9298 1779.7653 -1222.5975)">
			<stop  offset="0" style="stop-color:#B7823C"/>
			<stop  offset="0.4604" style="stop-color:#FFD562"/>
			<stop  offset="0.6568" style="stop-color:#B7823C"/>
			<stop  offset="1" style="stop-color:#573C2E"/>
		</linearGradient>
		<path class="st27" d="M1391.7,521.7c-11.4,0.3-20.9-4.9-30-11.3c-9.6-6.9-20.2-14.4-31.9-12.8c-11.1,1.6-13.4-1.3-21.5-8.5
			c-15.3-13.8-40-12.7-55.2-26.6c-4.7-4.3-8.1-9.8-12.6-14.2c-9.7-9.7-28.8-10.6-41.8-13.3l53.7-135.6
			c19.7,15.2,19.1,44.2,34.8,62.5c3.6,4.2,7.7,7.9,11,12.4c5.1,7,7.8,15.5,11,23.6c4.8,11.8,11.2,23.1,19.8,32.6
			c6.8,7.5,21.3,13.7,25,23.3c1.9,5,0.6,10.6,0.1,16c-0.5,5.6,0.4,12,2.3,18.5C1361.6,505,1374.5,521.6,1391.7,521.7z"/>
		<g class="st28">
			<g>
				<linearGradient id="SVGID_22_" gradientUnits="userSpaceOnUse" x1="1092.8667" y1="468.1456" x2="1277.3096" y2="468.1456">
					<stop  offset="0" style="stop-color:#80563E"/>
					<stop  offset="0.2483" style="stop-color:#B7894D"/>
					<stop  offset="0.4604" style="stop-color:#FFDB79"/>
					<stop  offset="0.6568" style="stop-color:#B7894D"/>
					<stop  offset="1" style="stop-color:#574136"/>
				</linearGradient>
				<path class="st29" d="M1106.8,686.2l-13.9-5.5l170.5-430.6l13.9,5.5L1106.8,686.2z M1100.2,677.5l3.5,1.4L1270,258.8l-3.5-1.4
					L1100.2,677.5z"/>
			</g>
			<g>
				<g class="st30">
					<g>
						<linearGradient id="SVGID_23_" gradientUnits="userSpaceOnUse" x1="1253.4473" y1="226.7101" x2="1309.2427" y2="226.7101">
							<stop  offset="0" style="stop-color:#80563E"/>
							<stop  offset="0.2483" style="stop-color:#B7894D"/>
							<stop  offset="0.4604" style="stop-color:#FFDB79"/>
							<stop  offset="0.6568" style="stop-color:#B7894D"/>
							<stop  offset="1" style="stop-color:#574136"/>
						</linearGradient>
						<path class="st31" d="M1286,262.3l-32.5-12.9l3.4-3c6.5-5.8,11.6-13.2,14.8-21.4c3.7-9.3,4.9-19.3,3.4-29.1l-0.4-3l22.1-1.8
							l12.5,15.5l-2.2,1.8c-7.8,6.2-13.9,14.4-17.6,23.7c-3.2,8.1-4.5,17-3.8,25.7L1286,262.3z M1263.8,247.5l16.1,6.4
							c-0.1-8.1,1.4-16.3,4.4-23.8c3.7-9.3,9.6-17.7,17.1-24.2l-7.1-8.8l-13.2,1.1c0.9,9.8-0.5,19.8-4.1,29
							C1273.9,234.6,1269.4,241.6,1263.8,247.5z"/>
					</g>
					<g>
						<linearGradient id="SVGID_24_" gradientUnits="userSpaceOnUse" x1="1248.3573" y1="227.2502" x2="1313.6646" y2="227.2502">
							<stop  offset="0" style="stop-color:#80563E"/>
							<stop  offset="0.2483" style="stop-color:#B7894D"/>
							<stop  offset="0.4604" style="stop-color:#FFDB79"/>
							<stop  offset="0.6568" style="stop-color:#B7894D"/>
							<stop  offset="1" style="stop-color:#574136"/>
						</linearGradient>
						<path class="st32" d="M1288.4,267.2l-40-15.9l1.5-4l0.7-0.5c7.9-5.9,14-13.9,17.7-23.1c3.9-9.8,4.8-20.5,2.6-30.8l-0.2-0.8
							l1-2.6l26.7-2.2l15.3,18.9l-1,2.5l-0.7,0.5c-8.6,6-15.3,14.4-19.2,24.2c-3.7,9.2-4.7,19.3-2.9,29l0.1,0.8L1288.4,267.2z
							 M1261.9,247.8l19,7.5c-0.3-8.5,1.2-17,4.3-25c3.8-9.5,9.8-17.9,17.6-24.5l-8.1-10l-14.8,1.2c1.1,10-0.2,20.2-4,29.6
							C1272.7,234.6,1267.9,241.9,1261.9,247.8z"/>
					</g>
				</g>
			</g>
			<g>
				<linearGradient id="SVGID_25_" gradientUnits="userSpaceOnUse" x1="1244.7056" y1="271.6307" x2="1279.9849" y2="271.6307">
					<stop  offset="0" style="stop-color:#80563E"/>
					<stop  offset="0.2483" style="stop-color:#B7894D"/>
					<stop  offset="0.4604" style="stop-color:#FFDB79"/>
					<stop  offset="0.6568" style="stop-color:#B7894D"/>
					<stop  offset="1" style="stop-color:#574136"/>
				</linearGradient>
				<path class="st33" d="M1274.8,281.9c-0.6,0-1.2-0.1-1.8-0.3l-25.3-10c-2.5-1-3.7-3.8-2.7-6.3l0.3-0.8c1-2.5,3.8-3.7,6.3-2.7
					l25.3,10c2.5,1,3.7,3.8,2.7,6.3l-0.3,0.8c-0.5,1.2-1.4,2.1-2.6,2.7C1276.1,281.7,1275.5,281.9,1274.8,281.9z"/>
			</g>
			<g>
				<linearGradient id="SVGID_26_" gradientUnits="userSpaceOnUse" x1="1242.2061" y1="282.5294" x2="1273.8541" y2="282.5294">
					<stop  offset="0" style="stop-color:#80563E"/>
					<stop  offset="0.2483" style="stop-color:#B7894D"/>
					<stop  offset="0.4604" style="stop-color:#FFDB79"/>
					<stop  offset="0.6568" style="stop-color:#B7894D"/>
					<stop  offset="1" style="stop-color:#574136"/>
				</linearGradient>
				<path class="st34" d="M1268.7,292c-0.6,0-1.2-0.1-1.8-0.3v0l-21.7-8.6c-2.5-1-3.7-3.8-2.7-6.3l0.3-0.8c1-2.5,3.8-3.7,6.3-2.7
					l21.7,8.6c1.2,0.5,2.1,1.4,2.7,2.6c0.5,1.2,0.5,2.5,0.1,3.7l-0.3,0.8C1272.5,290.9,1270.6,292,1268.7,292z"/>
			</g>
			<g>
				<linearGradient id="SVGID_27_" gradientUnits="userSpaceOnUse" x1="1155.4348" y1="498.483" x2="1190.7141" y2="498.483">
					<stop  offset="0" style="stop-color:#80563E"/>
					<stop  offset="0.2483" style="stop-color:#B7894D"/>
					<stop  offset="0.4604" style="stop-color:#FFDB79"/>
					<stop  offset="0.6568" style="stop-color:#B7894D"/>
					<stop  offset="1" style="stop-color:#574136"/>
				</linearGradient>
				<path class="st35" d="M1185.6,508.7c-0.6,0-1.2-0.1-1.8-0.3l-25.3-10c-2.5-1-3.7-3.8-2.7-6.3l0.3-0.8c0.5-1.2,1.4-2.1,2.6-2.7
					c1.2-0.5,2.5-0.5,3.7-0.1l25.3,10c2.5,1,3.7,3.8,2.7,6.3l-0.3,0.8C1189.3,507.6,1187.5,508.7,1185.6,508.7z"/>
			</g>
			<g>
				<linearGradient id="SVGID_28_" gradientUnits="userSpaceOnUse" x1="1151.0884" y1="514.0488" x2="1182.7339" y2="514.0488">
					<stop  offset="0" style="stop-color:#80563E"/>
					<stop  offset="0.2483" style="stop-color:#B7894D"/>
					<stop  offset="0.4604" style="stop-color:#FFDB79"/>
					<stop  offset="0.6568" style="stop-color:#B7894D"/>
					<stop  offset="1" style="stop-color:#574136"/>
				</linearGradient>
				<path class="st36" d="M1177.6,523.6c-0.6,0-1.2-0.1-1.8-0.3v0l-21.7-8.6c-2.5-1-3.7-3.8-2.7-6.3l0.3-0.8
					c0.5-1.2,1.4-2.1,2.6-2.7c1.2-0.5,2.5-0.5,3.7-0.1l21.7,8.6c2.5,1,3.7,3.8,2.7,6.3l-0.3,0.8c-0.5,1.2-1.4,2.1-2.6,2.7
					C1178.9,523.4,1178.2,523.6,1177.6,523.6z"/>
			</g>
		</g>
		<g class="st28">
			<g>
				<g>
					<path class="st37" d="M1275.2,448.9c-1.8,0.1-3.3,0.1-4.8,0.2c-0.3,0-0.6,0.9-0.6,1.3c-0.2,1.7-1.7,2.7-3.4,2
						c-1-0.4-1.6-1.3-1.1-2.3c0.5-1,1.3-2,2.2-2.6c1.7-1.2,3.8-1.3,5.9-1.3c0.4,0,0.8,0,1.2,0c0.1-0.1,0.1-0.2,0.2-0.3
						c-0.9-1-1.8-2-2.8-2.9c-0.3-0.2-1-0.2-1.4-0.1c-2.2,0.7-4.4,1.5-6.6,2.3c-0.2,0.1-0.5,0.1-0.9,0.2c1.4-3.8-0.2-7.2-1.2-10.5
						c-1.8-5.8-1.9-11.7-0.3-17.5c1.8-6.4,7.3-11.3,14.5-11.9c0.4,0,0.8,0.1,1.3,0.5c-1,0.5-2.1,1.1-3.1,1.6
						c-3.8,1.7-5.8,4.7-6.8,8.6c-1.9,7.1-0.4,13.6,3.4,19.8c1.6,2.6,3.4,5,5.1,7.5c0.2,0.3,0.5,0.5,0.9,0.9c0.5-1.2,0.9-2.3,1.3-3.3
						c0.1-0.3,0-0.7-0.2-1c-1.1-1.6-2.3-3.2-3.4-4.8c0.6-0.6,1.2-1.3,1.9-2c-4.8-5.1-6.7-11-4.1-17.7c2.6-6.5,7.9-9.4,14.8-10
						c0-0.6,0-1.2,0-1.6c3.2-1.3,6.4-2.6,9.3-3.8c1.3,2.9,2.7,5.9,4.1,9.1c-0.2,0.2-0.6,0.7-1,1.2c4.9,5.2,6.9,11.2,4.1,17.9
						c-2.7,6.6-8.2,9.6-15.4,9.8c0.1,1,0.1,1.9,0.2,2.7c-1.9,0.3-3.7,0.7-5.6,1c-0.8,0.1-1.1,0.5-1.4,1.2c-0.3,0.9-0.7,1.8-1.1,2.9
						c1.5-0.2,2.8-0.3,4.1-0.5c5.6-1.1,11.1-2.5,15.6-6.1c4.4-3.5,7.8-7.7,8.2-13.6c0.1-1.4-0.4-2.9-0.8-4.4c-0.4-1.4-1-2.8-1.5-4.2
						c0.1-0.1,0.3-0.2,0.4-0.3c0.8,0.9,1.8,1.7,2.5,2.8c2.8,4.3,3.8,9,2.2,14c-2.1,6.7-6.6,11.6-12.5,15.1c-2.2,1.3-4.4,2.7-6.5,4.2
						c-1,0.7-1.7,1.9-2.6,2.9c-0.9-1.8-2-3.7-2.9-5.6c-0.6-1.5-1.6-2.2-3.2-2c-0.8,0.1-1.6,0.2-2.7,0.4c0.7,0.7,1.3,1.3,1.8,1.8
						c1.3,1.4,2.5,2.9,2.9,4.9c0.1,0.6,0.1,1.3,0,2c-0.2,0.9-0.7,1.8-1.8,1.8c-1.1,0.1-1.8-0.6-2.3-1.5c-0.4-0.8-0.4-1.7,0.4-2.4
						c0.9-0.8,0.7-1.4-0.1-2.1c-0.9-0.9-1.8-1.7-3-2.5c-0.6,2-2.5,3.6-1.5,5.9c0.4,1.1,0,2-1,2.7c-1,0.7-2.7,0.8-3.7,0.1
						c-2.2-1.4-2.3-4.1,0.1-5.2c0.2-0.1,0.5-0.3,0.6-0.5C1274,452.2,1274.5,450.7,1275.2,448.9z M1297.7,413c-5,4-9.9,16.2-8.9,22.3
						c1.9-0.7,3.8-1.2,5.6-2C1304,429,1303.3,418,1297.7,413z M1287.2,408.9c-4.7-0.3-11,3.5-12.4,10c-0.9,4.2,1.3,10.7,4.1,11.8
						C1285,424.7,1286.7,417.1,1287.2,408.9z"/>
				</g>
			</g>
		</g>
	</g>
	<g>
		
			<linearGradient id="SVGID_29_" gradientUnits="userSpaceOnUse" x1="2040.3859" y1="911.8424" x2="2251.6626" y2="911.8424" gradientTransform="matrix(-0.9298 0.3682 0.3682 0.9298 2035.0826 -1222.5975)">
			<stop  offset="0" style="stop-color:#FF8202"/>
			<stop  offset="1" style="stop-color:#FBAD27"/>
		</linearGradient>
		<path class="st38" d="M444.3,302.4c-19.7,15.2-19.1,44.2-34.8,62.5c-3.6,4.2-7.7,7.9-11,12.4c-5.1,7.1-7.8,15.5-11,23.6
			c-4.8,11.8-11.2,23.1-19.8,32.6c-6.8,7.5-21.3,13.7-24.9,23.3c-1.9,5-0.6,10.6-0.1,16c1.7,20.4-13.8,52-37.5,52.1
			c11.4,0.3,20.9-4.9,30-11.3c9.6-6.8,20.2-14.4,31.9-12.8c11.1,1.5,13.4-1.3,21.4-8.5c15.3-13.8,40-12.7,55.2-26.6
			c4.7-4.3,8.1-9.8,12.6-14.3c9.7-9.7,28.8-10.6,41.8-13.3C498,438,444.3,302.4,444.3,302.4z"/>
		<linearGradient id="SVGID_30_" gradientUnits="userSpaceOnUse" x1="305.1608" y1="413.6244" x2="498.0422" y2="413.6244">
			<stop  offset="0" style="stop-color:#B7823C"/>
			<stop  offset="0.4604" style="stop-color:#FFD562"/>
			<stop  offset="0.6568" style="stop-color:#B7823C"/>
			<stop  offset="1" style="stop-color:#573C2E"/>
		</linearGradient>
		<path class="st39" d="M305.2,524.8c11.4,0.3,20.9-4.9,30-11.3c9.6-6.9,20.2-14.4,31.9-12.8c11.1,1.6,13.4-1.3,21.5-8.5
			c15.3-13.8,40-12.7,55.2-26.6c4.7-4.3,8.1-9.8,12.6-14.2c9.7-9.7,28.8-10.6,41.8-13.3l-53.7-135.6c-19.7,15.2-19.1,44.2-34.8,62.5
			c-3.6,4.2-7.7,7.9-11,12.4c-5.1,7-7.8,15.5-11,23.6c-4.8,11.8-11.2,23.1-19.8,32.6c-6.8,7.5-21.3,13.7-25,23.3
			c-1.9,5-0.6,10.6-0.1,16c0.5,5.6-0.4,12-2.3,18.5C335.2,508.1,322.3,524.7,305.2,524.8z"/>
		<g class="st28">
			<g>
				<linearGradient id="SVGID_31_" gradientUnits="userSpaceOnUse" x1="419.5419" y1="471.2827" x2="603.9849" y2="471.2827">
					<stop  offset="0" style="stop-color:#80563E"/>
					<stop  offset="0.2483" style="stop-color:#B7894D"/>
					<stop  offset="0.4604" style="stop-color:#FFDB79"/>
					<stop  offset="0.6568" style="stop-color:#B7894D"/>
					<stop  offset="1" style="stop-color:#574136"/>
				</linearGradient>
				<path class="st40" d="M590,689.3L419.5,258.8l13.9-5.5L604,683.8L590,689.3z M426.8,261.9L593.2,682l3.5-1.4L430.3,260.5
					L426.8,261.9z"/>
			</g>
			<g>
				<g class="st30">
					<g>
						<linearGradient id="SVGID_32_" gradientUnits="userSpaceOnUse" x1="387.6089" y1="229.847" x2="443.4042" y2="229.847">
							<stop  offset="0" style="stop-color:#80563E"/>
							<stop  offset="0.2483" style="stop-color:#B7894D"/>
							<stop  offset="0.4604" style="stop-color:#FFDB79"/>
							<stop  offset="0.6568" style="stop-color:#B7894D"/>
							<stop  offset="1" style="stop-color:#574136"/>
						</linearGradient>
						<path class="st41" d="M410.9,265.4l0.4-4.5c0.7-8.7-0.6-17.6-3.8-25.7c-3.7-9.3-9.8-17.5-17.6-23.7l-2.2-1.8l12.5-15.5
							l22.1,1.8l-0.4,3c-1.4,9.8-0.2,19.9,3.4,29.1c3.2,8.1,8.3,15.5,14.8,21.4l3.4,3L410.9,265.4z M395.5,208.9
							c7.5,6.6,13.4,14.9,17.1,24.2c3,7.6,4.5,15.7,4.4,23.8l16.1-6.4c-5.6-5.9-10.1-12.8-13.1-20.4c-3.7-9.2-5.1-19.2-4.1-29
							l-13.2-1.1L395.5,208.9z"/>
					</g>
					<g>
						<linearGradient id="SVGID_33_" gradientUnits="userSpaceOnUse" x1="383.1884" y1="230.3871" x2="448.4941" y2="230.3871">
							<stop  offset="0" style="stop-color:#80563E"/>
							<stop  offset="0.2483" style="stop-color:#B7894D"/>
							<stop  offset="0.4604" style="stop-color:#FFDB79"/>
							<stop  offset="0.6568" style="stop-color:#B7894D"/>
							<stop  offset="1" style="stop-color:#574136"/>
						</linearGradient>
						<path class="st42" d="M408.5,270.3l-1.6-4l0.1-0.8c1.7-9.7,0.7-19.7-2.9-29c-3.9-9.8-10.5-18.2-19.2-24.2l-0.7-0.5l-1-2.5
							l15.3-18.9l26.7,2.2l1,2.6L426,196c-2.2,10.3-1.3,20.9,2.6,30.8c3.7,9.2,9.8,17.2,17.7,23.1l0.7,0.5l1.5,4L408.5,270.3z
							 M394.1,209c7.8,6.5,13.8,15,17.6,24.5c3.1,7.9,4.6,16.5,4.3,25l19-7.5c-6-6-10.8-13.2-14-21.2c-3.7-9.4-5.1-19.6-4-29.6
							l-14.8-1.2L394.1,209z"/>
					</g>
				</g>
			</g>
			<g>
				<linearGradient id="SVGID_34_" gradientUnits="userSpaceOnUse" x1="416.8669" y1="274.7675" x2="452.1457" y2="274.7675">
					<stop  offset="0" style="stop-color:#80563E"/>
					<stop  offset="0.2483" style="stop-color:#B7894D"/>
					<stop  offset="0.4604" style="stop-color:#FFDB79"/>
					<stop  offset="0.6568" style="stop-color:#B7894D"/>
					<stop  offset="1" style="stop-color:#574136"/>
				</linearGradient>
				<path class="st43" d="M422,285c-0.7,0-1.3-0.1-1.9-0.4c-1.2-0.5-2.1-1.5-2.6-2.7l-0.3-0.8c-1-2.5,0.2-5.3,2.7-6.3l25.3-10
					c2.5-1,5.3,0.2,6.3,2.7l0.3,0.8c1,2.5-0.2,5.3-2.7,6.3l-25.3,10C423.2,284.9,422.6,285,422,285z"/>
			</g>
			<g>
				<linearGradient id="SVGID_35_" gradientUnits="userSpaceOnUse" x1="422.9973" y1="285.6664" x2="454.6454" y2="285.6664">
					<stop  offset="0" style="stop-color:#80563E"/>
					<stop  offset="0.2483" style="stop-color:#B7894D"/>
					<stop  offset="0.4604" style="stop-color:#FFDB79"/>
					<stop  offset="0.6568" style="stop-color:#B7894D"/>
					<stop  offset="1" style="stop-color:#574136"/>
				</linearGradient>
				<path class="st44" d="M428.1,295.2c-1.9,0-3.7-1.2-4.5-3.1l-0.3-0.8c-0.5-1.2-0.5-2.5,0.1-3.7c0.5-1.2,1.5-2.1,2.7-2.6l21.7-8.6
					c2.5-1,5.3,0.2,6.3,2.7l0.3,0.8c1,2.5-0.2,5.3-2.7,6.3l-21.7,8.6C429.3,295.1,428.7,295.2,428.1,295.2z"/>
			</g>
			<g>
				<linearGradient id="SVGID_36_" gradientUnits="userSpaceOnUse" x1="506.1371" y1="501.6197" x2="541.4192" y2="501.6197">
					<stop  offset="0" style="stop-color:#80563E"/>
					<stop  offset="0.2483" style="stop-color:#B7894D"/>
					<stop  offset="0.4604" style="stop-color:#FFDB79"/>
					<stop  offset="0.6568" style="stop-color:#B7894D"/>
					<stop  offset="1" style="stop-color:#574136"/>
				</linearGradient>
				<path class="st45" d="M511.3,511.9c-1.9,0-3.7-1.2-4.5-3.1l-0.3-0.8c-1-2.5,0.2-5.3,2.7-6.3l25.3-10c1.2-0.5,2.5-0.5,3.7,0.1
					c1.2,0.5,2.1,1.5,2.6,2.7l0.3,0.8c0.5,1.2,0.5,2.5-0.1,3.7c-0.5,1.2-1.5,2.1-2.7,2.6l-25.3,10
					C512.5,511.7,511.9,511.9,511.3,511.9z M511,506.3C511,506.3,511,506.3,511,506.3L511,506.3z"/>
			</g>
			<g>
				<linearGradient id="SVGID_37_" gradientUnits="userSpaceOnUse" x1="514.1151" y1="517.1856" x2="545.7629" y2="517.1856">
					<stop  offset="0" style="stop-color:#80563E"/>
					<stop  offset="0.2483" style="stop-color:#B7894D"/>
					<stop  offset="0.4604" style="stop-color:#FFDB79"/>
					<stop  offset="0.6568" style="stop-color:#B7894D"/>
					<stop  offset="1" style="stop-color:#574136"/>
				</linearGradient>
				<path class="st46" d="M519.3,526.7c-0.7,0-1.3-0.1-1.9-0.4c-1.2-0.5-2.1-1.5-2.6-2.7l-0.3-0.8c-0.5-1.2-0.5-2.5,0.1-3.7
					c0.5-1.2,1.5-2.1,2.7-2.6l21.7-8.6c1.2-0.5,2.5-0.5,3.7,0.1c1.2,0.5,2.1,1.5,2.6,2.7l0.3,0.8c1,2.5-0.2,5.3-2.7,6.3l-21.7,8.6
					C520.5,526.6,519.9,526.7,519.3,526.7z M519,521.1C519,521.1,519,521.1,519,521.1L519,521.1z"/>
			</g>
		</g>
		<g class="st28">
			<g>
				<g>
					<path class="st47" d="M423.5,456.8c0.1,0.2,0.4,0.4,0.6,0.5c2.4,1.1,2.2,3.8,0.1,5.2c-0.9,0.6-2.7,0.6-3.7-0.1
						c-1-0.7-1.4-1.6-1-2.7c0.9-2.4-0.9-3.9-1.5-5.9c-1.1,0.8-2,1.6-3,2.5c-0.8,0.7-1,1.4-0.1,2.1c0.8,0.7,0.8,1.5,0.4,2.4
						c-0.5,0.9-1.2,1.5-2.3,1.5c-1.1-0.1-1.6-0.9-1.8-1.8c-0.1-0.6-0.2-1.3,0-2c0.3-2,1.6-3.4,2.9-4.9c0.5-0.6,1-1.1,1.8-1.8
						c-1.1-0.1-1.9-0.3-2.7-0.4c-1.6-0.2-2.6,0.5-3.2,2c-0.8,2-1.9,3.8-2.9,5.6c-0.9-1-1.6-2.2-2.6-2.9c-2.1-1.5-4.3-2.8-6.5-4.2
						c-6-3.6-10.4-8.4-12.5-15.1c-1.6-5-0.6-9.7,2.2-14c0.7-1,1.6-1.9,2.5-2.8c0.1,0.1,0.3,0.2,0.4,0.3c-0.5,1.4-1.1,2.7-1.5,4.2
						c-0.4,1.4-0.9,2.9-0.8,4.4c0.4,5.9,3.8,10.2,8.2,13.6c4.5,3.6,10,5.1,15.6,6.1c1.3,0.2,2.6,0.3,4.1,0.5c-0.5-1.2-0.8-2-1.1-2.9
						c-0.2-0.7-0.6-1.1-1.4-1.2c-1.9-0.3-3.7-0.7-5.6-1c0.1-0.8,0.1-1.7,0.2-2.7c-7.1-0.2-12.7-3.2-15.4-9.8
						c-2.7-6.6-0.7-12.7,4.1-17.9c-0.4-0.5-0.8-0.9-1-1.2c1.5-3.2,2.8-6.3,4.1-9.1c2.9,1.2,6,2.5,9.3,3.8c0,0.4,0,1,0,1.6
						c6.9,0.7,12.3,3.6,14.8,10c2.6,6.6,0.7,12.5-4.1,17.7c0.7,0.7,1.4,1.4,1.9,2c-1.2,1.6-2.3,3.2-3.4,4.8c-0.2,0.3-0.3,0.7-0.2,1
						c0.4,1.1,0.8,2.1,1.3,3.3c0.4-0.4,0.7-0.6,0.9-0.9c1.7-2.5,3.6-4.9,5.1-7.5c3.8-6.1,5.2-12.6,3.4-19.8c-1-3.9-3.1-6.9-6.8-8.6
						c-1.1-0.5-2.1-1.1-3.1-1.6c0.5-0.4,0.9-0.5,1.3-0.5c7.2,0.6,12.6,5.5,14.5,11.9c1.6,5.8,1.5,11.7-0.3,17.5
						c-1,3.4-2.6,6.7-1.2,10.5c-0.4-0.1-0.7-0.1-0.9-0.2c-2.2-0.8-4.4-1.6-6.6-2.3c-0.4-0.1-1.1-0.2-1.4,0.1c-1,0.9-1.9,1.9-2.8,2.9
						c0.1,0.1,0.1,0.2,0.2,0.3c0.4,0,0.8,0,1.2,0c2.1,0,4.1,0.1,5.9,1.3c0.9,0.6,1.7,1.6,2.2,2.6c0.5,1-0.1,1.9-1.1,2.3
						c-1.6,0.7-3.1-0.3-3.4-2c-0.1-0.5-0.4-1.3-0.6-1.3c-1.5-0.2-3-0.2-4.8-0.2C422.3,453.8,422.9,455.3,423.5,456.8z M402.5,436.4
						c1.8,0.8,3.7,1.3,5.6,2c1-6.1-3.9-18.3-8.9-22.3C393.5,421.1,392.8,432.1,402.5,436.4z M418,433.8c2.8-1.1,5.1-7.6,4.1-11.8
						c-1.4-6.6-7.7-10.3-12.4-10C410.1,420.2,411.8,427.9,418,433.8z"/>
				</g>
			</g>
		</g>
	</g>
</g>
<g>
	
		<image style="display:none;overflow:visible;" width="3105" height="3102" xlink:href="BAAFD424.png"  transform="matrix(0.24 0 0 0.24 475.7857 653.84)">
	</image>
	
		<image style="display:none;overflow:visible;" width="3105" height="3102" xlink:href="BAAFD42E.png"  transform="matrix(0.24 0 0 0.24 475.7857 653.84)">
	</image>
	<g class="st1">
		<linearGradient id="SVGID_38_" gradientUnits="userSpaceOnUse" x1="473.1348" y1="937.4301" x2="1223.7224" y2="937.4301">
			<stop  offset="0" style="stop-color:#80563E"/>
			<stop  offset="0.2483" style="stop-color:#B7894D"/>
			<stop  offset="0.4604" style="stop-color:#FFDB79"/>
			<stop  offset="0.6568" style="stop-color:#B7894D"/>
			<stop  offset="1" style="stop-color:#574136"/>
		</linearGradient>
		<path class="st48" d="M847.3,1401c-1,0-2,0-3-0.1c-17.5-0.9-32-9.9-40.7-25.3c-9.4-16.7-6.5-36.1,7.5-49.6c4.1-3.9,6-8.2,6-13.6
			c0.1-17.6,0.2-35.6,0.2-52.9l0-5.9c-0.4,0.1-0.7,0.1-1.1,0.2c-9.8,1.5-19.1,3-27.8,7.1c-6.8,3.2-13.5,6.8-20,10.3
			c-3.4,1.8-6.9,3.7-10.4,5.5c-1.1,0.6-1.4,0.8-0.9,2.7c0.7,2.5,1.3,5,1.9,7.5c0.9,3.6,1.8,7.4,3,11c2.9,9.1,1.2,17.8-5.1,25.9
			c-10.5,13.5-24.2,19.4-40.8,17.5c-10.9-1.2-23.3-14.8-24.1-26.5c-1.5-19.8,4.8-37.1,19.3-52.8c16.1-17.5,35.9-30.9,60.6-41
			c6.1-2.5,12.2-5.2,18.1-7.8c1.4-0.6,2.7-1.2,4.1-1.8c-17.6-10.8-32.9-18.2-47.7-23.3c-3.3-1.1-5.3-0.8-7.6,1.1
			c-7.7,6.6-15.6,13.2-23.3,19.7c-8.6,7.3-17.6,14.8-26.3,22.3c-8.3,7.1-16.6,14.3-24.6,21.4c-4.3,3.8-8.6,7.5-12.9,11.2
			c-1,0.8-1.9,1.6-3.1,2.5c-0.6,0.5-1.3,1-2.1,1.6l-3.5,2.8l-1-4.4c-0.3-1.5-0.6-2.9-0.9-4.2c-0.6-2.7-1.2-5.3-1.6-7.9
			c-3.8-24.2-13.2-46.3-27.7-65.7c-7.5-10-15-20.2-22.2-30.1c-10.9-14.9-22.2-30.3-33.7-45.2c-25.3-33-45.2-71.5-62.8-121.2
			c-14.6-41.2-21.1-84.2-19.8-131.5c0.6-24.3,7.9-47.2,14.6-66.8c16.5-48,48.6-87.2,98.1-120c9.5-6.3,20.1-10.9,30.4-15.3
			c4.3-1.9,8.8-3.8,13.1-5.8c2.3-1.1,4.9-1.4,8-1.1l4.9,0.5l-3,4c-0.4,0.5-0.8,1.1-1.2,1.6c-0.9,1.2-1.9,2.5-2.9,3.7
			c-5.4,6.3-10.8,12.6-16.2,18.8c-10.7,12.4-21.8,25.3-32.5,38.1c-19.2,23-30.8,48.7-34.5,76.4c-2.3,17.5-2.2,36.5,0.6,58
			c4.1,32.5,12.7,64.7,25.6,95.8c13.6,33,34.3,63.8,63.2,94.1c41.2,43.3,92,81.7,155,117.6c2.6,1.5,5.3,3,8,4.5
			c3.1,1.7,6.1,3.4,9.2,5.2c0.2,0.1,0.4,0.2,0.6,0.3c0-0.1,0-0.3,0.1-0.5c0.2-2.7,0.5-32.5,0.7-50c-0.2-0.5-0.5-1-1.4-1.7
			c-18.1-13.4-40-28.5-64.8-39.4c-2.9-1.3-5.6-2.7-8.5-4.3c-1.3-0.7-2.7-1.5-4.1-2.2l-2.4-1.3l1.2-2.5c0.6-1.2,1.2-2.5,1.9-3.8
			c1.4-2.9,2.9-5.9,4.2-8.9c3.6-8.3,6.7-15.7,9.4-22.7c-0.1-0.2-0.3-0.5-0.5-0.6c-4.3-2.6-8.9-5.3-13.7-7.6
			c-41.7-19.9-74.8-51.3-101.4-95.8c-22.5-37.6-32.3-79.8-29.2-125.4c1.4-20.4,5.1-38.5,11.5-55.2c23-60.5,63.6-106.4,120.6-136.3
			c0.6-0.3,1.1-0.6,1.7-0.9c1.7-0.9,3.3-1.7,4.8-2.7c3.8-2.4,4.1-3.5,2.4-7.7c-0.9-2.3-2-4.4-3.2-6.7c-0.7-1.5-1.4-2.9-2.1-4.4
			c-3-6.4-2.4-8.8,3.2-13.2c4.5-3.6,8.9-7.1,13.4-10.7c11.8-9.4,24.1-19.2,36-28.9c17.1-13.9,30.6-31.8,43.7-49.1l0.5-0.6
			c1.7-2.2,3.4-4.4,5.2-6.8l5.2-6.8l2.2,3.2c29.1,42,64.8,76.4,106.2,102.2l2,1.3l-11.1,25.6c0.3,0.1,0.7,0.2,1,0.4
			c2.7,1,5.3,1.9,7.8,3c16.5,7.4,32.4,17.6,50.1,32.1c35.7,29.1,61,63.5,75.1,102.1c23.1,63.2,18.3,124.8-14.4,183.3
			c-24,42.9-60.5,76.8-108.5,100.9c-3.7,1.8-7.3,3.3-11.3,4.9c-0.9,0.3-1.7,0.7-2.6,1l18.5,37.1l-2.5,1.2c-2.1,1.1-4.2,2.1-6.3,3.1
			c-4.5,2.2-9.1,4.5-13.7,6.8c-22.4,10.9-43,25.2-60.2,37.9l0,4c0.1,9.9,0.3,36.5,0.5,46.5c0.1,0,0.2-0.1,0.2-0.1
			c69.5-36.4,125.4-77.5,171-125.7c31.1-32.9,53.4-66.9,68-103.8c17.5-44.2,25-86.1,22.9-128c-0.9-17.7-2.2-34.9-8.5-51.5
			c-6.9-18.4-18.9-33.9-29.8-46.6c-6.6-7.7-13.3-15.5-19.8-23c-6.8-7.9-13.9-16.1-20.8-24.2c-2-2.4-3.8-5-5.5-7.5
			c-0.8-1.1-1.5-2.3-2.3-3.4l-1.1-1.5l2.7-4.3l2,0.5c0.6,0.2,1.3,0.3,1.9,0.4c1.5,0.3,3,0.7,4.5,1.1c24.3,7.8,46.6,20.4,68.3,38.5
			c36.1,30.1,61.5,66.1,75.6,107v0c10.8,31.4,14.8,65,12.2,102.8c-3.9,56.8-23.6,107.4-42.5,149.3c-12.9,28.8-31.2,53.3-52,80
			c-2.5,3.2-5.1,6.4-7.6,9.5c-4.5,5.5-9.1,11.3-13.3,17.1c-2.5,3.5-5,6.9-7.5,10.4c-13.5,18.7-27.5,38-36.7,59.7
			c-4.1,9.6-5.4,19.7-6.7,30.4l-0.2,1.6c-0.2,1.5-0.6,3-1,4.6c-0.2,0.8-0.4,1.6-0.6,2.6l-1,4.3l-3.5-2.7c-0.7-0.5-1.3-1-1.9-1.5
			c-1.2-0.9-2.2-1.7-3.3-2.6c-7.9-6.8-15.9-13.5-23.8-20.3c-16.9-14.4-34.4-29.3-51.6-43.9c-3.9-3.3-8.3-6.7-14.2-10.8
			c-0.5-0.4-1.7-0.6-2.3-0.4c-18.1,5.3-34.8,12.9-51.1,23.1c0.2,0.1,0.4,0.1,0.5,0.2c20,7.8,41,17,59.7,31.5
			c12.1,9.3,27.2,22.4,36.7,40.8c6.6,12.9,7.6,25.6,3,37.9c-5.9,15.6-16.1,21.8-32.2,19.5c-15.4-2.2-26.7-9.9-33.8-22.7
			c-2.9-5.3-3.6-10.8-2.2-16.7l0.8-3.3c1.6-6.5,3.3-13.3,4.7-19.9c0-0.3-0.3-1-0.5-1.2c-18.4-11.4-36-19-54.1-23.2
			c-1.4-0.3-3.5-0.8-4.5-0.9c-0.2,1-0.2,3.1-0.2,3.8c0,21.1,0.6,42.8,1.1,62c0,0.7,0.7,2,2.1,3.6c7.5,8.4,12.6,18.1,15.1,29
			c2.6,11.1-2.6,20.3-8.6,28.6C881,1393.1,864.4,1401,847.3,1401z M821.9,1247.2l0.6,2.5c0.1,0.2,0.1,0.4,0.2,0.5
			c0.1,0.4,0.3,1,0.3,1.7l0,7.7c-0.1,17.3-0.1,35.3-0.2,52.9c0,6.8-2.6,12.6-7.7,17.6c-12.1,11.7-14.6,28.5-6.5,42.8
			c7.7,13.6,20.5,21.6,36.1,22.4c16.1,0.9,32.6-6.4,41-18.2c6-8.4,9.6-15.7,7.6-24.1c-2.3-9.9-7-18.8-13.8-26.5
			c-1.5-1.7-3.4-4.4-3.5-7.2c-0.5-19.2-1.1-41-1.1-62.2c0-4,0.2-6.7,2.2-8.4c2.2-1.7,5.1-1.1,9.4,0c18.6,4.4,36.9,12.2,55.8,24
			c2.1,1.3,3.5,4.7,3,7c-1.4,6.8-3.1,13.6-4.8,20.2l-0.8,3.3c-1.1,4.5-0.6,8.6,1.7,12.7c6.2,11.2,16.1,17.9,29.7,19.8
			c13.6,2,21.2-2.6,26.2-15.9c4.1-10.9,3.2-21.8-2.8-33.4c-9-17.5-23.5-30-35.2-39c-18.2-14-38.8-23-58.4-30.7
			c-1.2-0.5-2.4-1-3.7-1.5c-0.6-0.3-1.3-0.5-1.9-0.8l-4.9-2l4.4-2.9c18.2-12,36.8-20.7,57.1-26.7c2.2-0.7,5.2-0.2,7.1,1.2
			c6,4.2,10.5,7.6,14.6,11.1c17.2,14.6,34.7,29.5,51.6,44c7.9,6.8,15.8,13.5,23.8,20.3c0.5,0.4,1,0.8,1.6,1.3
			c0.2-0.9,0.4-1.7,0.5-2.4l0.2-1.6c1.4-10.6,2.8-21.5,7.1-31.9c9.4-22.3,23.6-41.9,37.3-60.8c2.5-3.4,5-6.9,7.4-10.3
			c4.3-6,9-11.8,13.5-17.4c2.5-3.1,5.1-6.2,7.5-9.4c20.6-26.4,38.7-50.6,51.3-78.8c18.6-41.5,38.2-91.5,42-147.4
			c2.5-37-1.4-69.9-11.9-100.6c-13.7-39.9-38.6-75.1-73.8-104.5c-21.1-17.6-42.8-29.9-66.4-37.5c-0.2-0.1-0.4-0.1-0.6-0.2
			c1.4,2.1,2.8,4,4.3,5.8c6.9,8.1,13.9,16.2,20.8,24.1c6.5,7.5,13.2,15.3,19.8,23c11.2,13.1,23.5,29,30.8,48.2
			c6.5,17.4,7.9,35.8,8.8,53.2c2.2,42.7-5.4,85.3-23.2,130.3c-14.9,37.6-37.5,72.1-69.1,105.6c-46,48.7-102.4,90.1-172.5,126.8
			c-1,0.5-1.9,0.9-2.9,1.3c-0.5,0.2-1,0.4-1.5,0.6l-3.3,1.3l-0.6-3.5c-0.2-1-0.4-10.1-0.7-51l-0.1-6l0.5-0.7
			c0.4-0.6,0.9-1.1,1.5-1.5c17.5-12.9,38.5-27.5,61.4-38.7c4.6-2.2,9.2-4.5,13.7-6.7c1.3-0.6,2.5-1.3,3.8-1.9l-18.7-37.4l2.8-1.2
			c1.8-0.8,3.7-1.5,5.5-2.2c3.8-1.5,7.4-2.9,10.8-4.7c47-23.6,82.7-56.8,106.1-98.7c31.9-56.9,36.6-117,14.1-178.6
			c-13.8-37.6-38.5-71.1-73.4-99.6c-17.3-14.1-32.9-24.1-48.9-31.3c-2.3-1.1-4.8-1.9-7.4-2.8c-1.3-0.4-2.6-0.9-3.9-1.4l-2.8-1
			l11.5-26.6c-40.1-25.5-74.9-58.9-103.5-99.4l-0.5,0.7c-1.8,2.4-3.5,4.6-5.2,6.8l-0.5,0.6c-13.3,17.6-27,35.7-44.7,50.1
			c-12,9.7-24.2,19.5-36.1,29c-4.5,3.6-8.9,7.1-13.4,10.7c-0.8,0.6-2.6,2.1-2.8,2.8c-0.2,0.7,0.9,2.9,1.2,3.7c0.7,1.4,1.4,2.8,2,4.2
			c1.1,2.3,2.3,4.7,3.3,7.1c2.8,6.8,1.6,10.7-4.6,14.6c-1.7,1.1-3.5,2-5.3,2.9c-0.5,0.3-1.1,0.6-1.6,0.8
			c-55.8,29.3-95.4,74.1-117.9,133.4c-6.1,16.2-9.8,33.7-11.1,53.6c-3,44.4,6.6,85.5,28.4,122.1c26,43.5,58.4,74.1,99,93.6
			c5.1,2.4,10,5.4,14.2,7.9c1.6,1,4,4.1,3,6.7c-2.8,7.2-6,15-9.8,23.6c-1.4,3.2-2.9,6.2-4.3,9.2c-0.2,0.4-0.4,0.9-0.6,1.3
			c0.6,0.3,1.2,0.6,1.8,1c2.8,1.5,5.4,2.9,8,4.1c25.3,11,47.5,26.4,65.8,40c2.1,1.5,3.2,3.2,3.7,5.3l0.1,0.3l0,0.3
			c-0.1,7.9-0.4,47.2-0.7,50.7c-0.2,2.7-1.2,4.5-2.9,5.4c-1.7,0.9-3.8,0.7-6.2-0.7c-3-1.7-6.1-3.4-9.1-5.1c-2.7-1.5-5.3-3-8-4.5
			c-63.6-36.1-114.7-74.9-156.3-118.6c-29.4-30.8-50.4-62.2-64.3-95.8c-13-31.5-21.8-64.3-26-97.2c-2.8-22-3-41.5-0.6-59.5
			c3.9-28.8,15.9-55.5,35.8-79.3c10.7-12.9,21.8-25.8,32.6-38.2c5.3-6.1,10.5-12.2,15.7-18.3c-4,1.9-8.1,3.6-12,5.3
			c-10.1,4.4-20.5,8.9-29.5,14.8c-48.4,32-79.7,70.4-95.9,117.1c-6.6,19.2-13.7,41.6-14.3,65.1c-1.2,46.5,5.2,88.9,19.5,129.4
			c17.4,49.1,37.1,87.2,62,119.7c11.5,15,22.8,30.4,33.7,45.3c7.2,9.9,14.7,20.1,22.2,30.1c15.1,20.1,24.7,43.1,28.7,68.1
			c0.4,2.4,0.9,4.7,1.5,7.4c0.6-0.4,1.1-0.8,1.5-1.3c4.3-3.7,8.6-7.5,12.9-11.2c8.1-7,16.4-14.3,24.7-21.4
			c8.8-7.5,17.7-15,26.3-22.3c7.6-6.4,15.5-13.1,23.3-19.7c3.8-3.2,7.9-3.9,13.1-2.1c16.2,5.6,32.9,13.9,52.4,26.1
			c1.3,0.8,1.4,2.2,1.4,2.6l0,0.1l0.4,2.2l-2,0.9c-2.7,1.2-5.5,2.4-8.2,3.6c-6,2.6-12.1,5.3-18.3,7.9c-23.9,9.7-43.1,22.7-58.6,39.6
			c-13.3,14.5-19.2,30.4-17.8,48.6c0.7,9.1,10.9,20.5,19.2,21.4c14.5,1.6,26.5-3.6,35.7-15.4c5.2-6.6,6.5-13.4,4.2-20.8
			c-1.2-3.8-2.1-7.6-3.1-11.3c-0.6-2.4-1.2-4.9-1.9-7.3c-1.2-4.2,0.1-7.3,3.7-9.2c3.5-1.8,7-3.7,10.3-5.5
			c6.6-3.5,13.4-7.2,20.3-10.5c9.4-4.4,19.5-6,29.3-7.5c1.3-0.2,2.6-0.4,3.9-0.6L821.9,1247.2z M939.1,1277.5
			C939.1,1277.5,939.1,1277.5,939.1,1277.5C939.1,1277.5,939.1,1277.5,939.1,1277.5z M924,994l-1-3.1c-0.5-1.5-1.1-3-1.6-4.4
			c-1.1-3.1-2.2-6-3-9.1l-2.6-10c-6.9-26.2-14-53.3-20.6-80c-1.7-7-2-14.5-2.1-20.9c-0.1-3.6-0.1-7.2-0.2-10.8
			c-0.4-24.1-0.9-49,2.6-73.3l0,0c3.5-24.7,9-49.6,13.9-70.9c3.2-14.2,7.4-28.3,11.4-42c1.2-3.9,2.3-7.8,3.4-11.8
			c0.9-3.1,1.6-5.6,3.8-6.6c2.1-1,4.1-0.2,7.3,1.1l0.3,0.1c27.8,11.4,48.7,32,67.8,52.1c20.9,22.1,33.6,49.7,41.1,89.4
			c6.8,36.1-1,71.2-24.7,110.4c-24.3,40.3-60.3,67.4-89,86.5c-0.7,0.5-1.4,0.8-2.3,1.2c-0.4,0.2-0.9,0.5-1.5,0.8L924,994z
			 M898.2,782.7l2.8,0.4c-3.4,23.9-2.9,48.6-2.5,72.4c0.1,3.6,0.1,7.2,0.2,10.9c0.1,6.2,0.3,13.3,1.9,19.7
			c6.6,26.7,13.7,53.8,20.6,80l2.6,10c0.7,2.8,1.8,5.6,2.8,8.6c0.2,0.5,0.4,1,0.6,1.5c0.2-0.1,0.3-0.2,0.4-0.3
			c28.2-18.8,63.5-45.4,87.3-84.7c22.9-37.9,30.5-71.7,24-106.4c-7.3-38.6-19.5-65.3-39.6-86.6c-18.6-19.7-39.1-39.8-65.8-50.7
			l-0.3-0.1c-0.9-0.4-2-0.8-2.6-1c-0.3,0.8-0.7,2.1-0.9,2.8c-1.1,3.9-2.3,7.9-3.4,11.8c-4,13.6-8.1,27.7-11.3,41.7
			c-4.8,21.3-10.3,46-13.8,70.5L898.2,782.7z M770.9,989.6c-1.4,0-2.8-0.6-3.8-1.1c-26.5-12.9-48.7-29.1-66-48.1
			c-18.4-20.1-32-44-40.4-71.2c-6-19.2-6.3-38.9-5.8-57.3c1.1-37,13.8-71.5,37.8-102.6c19.4-25.1,43.3-44.3,71-56.9
			c0.8-0.3,1.5-0.6,2.4-0.9c0.5-0.1,1-0.3,1.6-0.5l2.8-1l0.8,2.9c1.7,6.3,3.5,12.5,5.2,18.8c3.7,13.4,7.6,27.3,11.1,40.9
			c8.8,34.7,14.7,69.1,17.5,102.3c2,23.4,0,46.8-2.4,68.6c-4,35.9-15,69.6-25.1,97.8c-0.2,0.4-0.3,0.9-0.5,1.3
			c-0.3,0.6-0.5,1.3-0.6,1.8c-0.6,2.3-1.6,3.8-3.2,4.6C772.3,989.4,771.6,989.6,770.9,989.6z M770.4,984.1L770.4,984.1L770.4,984.1z
			 M766.5,657.4c-0.2,0.1-0.5,0.2-0.7,0.3c-26.9,12.2-50,30.8-68.9,55.2c-23.6,30.6-35.6,63-36.6,99.3c-0.5,17.9-0.2,37,5.5,55.5
			c16.1,51.7,50,89.6,103.6,115.9c0.5,0.3,0.9,0.4,1.1,0.4c0.1-0.2,0.1-0.4,0.2-0.7c0.2-1,0.6-1.8,0.9-2.6c0.1-0.4,0.3-0.7,0.4-1.1
			c10.1-27.9,20.9-61.2,24.8-96.5l2.8,0.3L797,883c2.4-21.5,4.4-44.5,2.4-67.5c-2.8-32.9-8.6-67-17.4-101.4
			c-3.5-13.6-7.1-26.8-11-40.8C769.5,668,768,662.7,766.5,657.4z"/>
	</g>
</g>
<g>
	<g>
		<g>
			<linearGradient id="SVGID_39_" gradientUnits="userSpaceOnUse" x1="110.9023" y1="119.0527" x2="113.8095" y2="119.0527">
				<stop  offset="0" style="stop-color:#B7823C"/>
				<stop  offset="0.4604" style="stop-color:#FFD562"/>
				<stop  offset="0.6568" style="stop-color:#B7823C"/>
				<stop  offset="1" style="stop-color:#573C2E"/>
			</linearGradient>
			<polygon class="st49" points="110.9,0 110.9,238.1 111,238.1 111,237.4 113.8,237.4 113.8,0 			"/>
			<linearGradient id="SVGID_40_" gradientUnits="userSpaceOnUse" x1="110.9024" y1="487.322" x2="113.8094" y2="487.322">
				<stop  offset="0" style="stop-color:#B7823C"/>
				<stop  offset="0.4604" style="stop-color:#FFD562"/>
				<stop  offset="0.6568" style="stop-color:#B7823C"/>
				<stop  offset="1" style="stop-color:#573C2E"/>
			</linearGradient>
			<rect x="110.9" y="453.9" class="st50" width="2.9" height="66.8"/>
			<linearGradient id="SVGID_41_" gradientUnits="userSpaceOnUse" x1="110.9024" y1="380.8634" x2="113.8094" y2="380.8634">
				<stop  offset="0" style="stop-color:#B7823C"/>
				<stop  offset="0.4604" style="stop-color:#FFD562"/>
				<stop  offset="0.6568" style="stop-color:#B7823C"/>
				<stop  offset="1" style="stop-color:#573C2E"/>
			</linearGradient>
			<polygon class="st51" points="113.8,434.2 113.8,328.4 111,328.4 111,327.5 110.9,327.5 110.9,434.2 			"/>
		</g>
		<linearGradient id="SVGID_42_" gradientUnits="userSpaceOnUse" x1="102.9083" y1="522.8928" x2="121.8035" y2="522.8928">
			<stop  offset="0" style="stop-color:#B7823C"/>
			<stop  offset="0.4604" style="stop-color:#FFD562"/>
			<stop  offset="0.6568" style="stop-color:#B7823C"/>
			<stop  offset="1" style="stop-color:#573C2E"/>
		</linearGradient>
		<circle class="st52" cx="112.4" cy="522.9" r="9.4"/>
	</g>
	<g>
		<linearGradient id="SVGID_43_" gradientUnits="userSpaceOnUse" x1="96.1039" y1="283.4626" x2="128.6079" y2="283.4626">
			<stop  offset="0" style="stop-color:#B7823C"/>
			<stop  offset="0.4604" style="stop-color:#FFD562"/>
			<stop  offset="0.6568" style="stop-color:#B7823C"/>
			<stop  offset="1" style="stop-color:#573C2E"/>
		</linearGradient>
		<path class="st53" d="M112.4,299.7c-9,0-16.3-7.3-16.3-16.3c0-9,7.3-16.3,16.3-16.3c9,0,16.3,7.3,16.3,16.3
			C128.6,292.4,121.3,299.7,112.4,299.7z M112.4,269c-8,0-14.4,6.5-14.4,14.4c0,8,6.5,14.4,14.4,14.4s14.4-6.5,14.4-14.4
			C126.8,275.5,120.3,269,112.4,269z"/>
	</g>
	<g>
		<linearGradient id="SVGID_44_" gradientUnits="userSpaceOnUse" x1="102.0891" y1="443.9071" x2="122.6227" y2="443.9071">
			<stop  offset="0" style="stop-color:#B7823C"/>
			<stop  offset="0.4604" style="stop-color:#FFD562"/>
			<stop  offset="0.6568" style="stop-color:#B7823C"/>
			<stop  offset="1" style="stop-color:#573C2E"/>
		</linearGradient>
		<path class="st54" d="M112.4,454.2c-5.7,0-10.3-4.6-10.3-10.3c0-5.7,4.6-10.3,10.3-10.3c5.7,0,10.3,4.6,10.3,10.3
			C122.6,449.6,118,454.2,112.4,454.2z M112.4,434.8c-5,0-9.1,4.1-9.1,9.1c0,5,4.1,9.1,9.1,9.1s9.1-4.1,9.1-9.1
			C121.5,438.9,117.4,434.8,112.4,434.8z"/>
	</g>
	<g>
		<linearGradient id="SVGID_45_" gradientUnits="userSpaceOnUse" x1="102.1102" y1="254.3274" x2="122.6015" y2="254.3274">
			<stop  offset="0" style="stop-color:#B7823C"/>
			<stop  offset="0.4604" style="stop-color:#FFD562"/>
			<stop  offset="0.6568" style="stop-color:#B7823C"/>
			<stop  offset="1" style="stop-color:#573C2E"/>
		</linearGradient>
		<path class="st55" d="M112.4,268.1c-5.7,0-10.2-4.6-10.2-10.2c0-5.4,9.2-16.1,9.6-16.5l0.7-0.8l0.7,0.8c0.4,0.4,9.6,11.1,9.6,16.5
			C122.6,263.5,118,268.1,112.4,268.1z M112.4,243.3c-2.9,3.4-8.4,10.9-8.4,14.5c0,4.7,3.8,8.4,8.4,8.4c4.7,0,8.4-3.8,8.4-8.4
			C120.8,254.2,115.2,246.8,112.4,243.3z"/>
	</g>
	<g>
		<linearGradient id="SVGID_46_" gradientUnits="userSpaceOnUse" x1="102.1102" y1="312.5977" x2="122.6015" y2="312.5977">
			<stop  offset="0" style="stop-color:#B7823C"/>
			<stop  offset="0.4604" style="stop-color:#FFD562"/>
			<stop  offset="0.6568" style="stop-color:#B7823C"/>
			<stop  offset="1" style="stop-color:#573C2E"/>
		</linearGradient>
		<path class="st56" d="M112.4,326.4l-0.7-0.8c-0.4-0.4-9.6-11.1-9.6-16.5c0-5.7,4.6-10.2,10.2-10.2s10.2,4.6,10.2,10.2
			c0,5.4-9.2,16.1-9.6,16.5L112.4,326.4z M112.4,300.6c-4.7,0-8.4,3.8-8.4,8.4c0,3.6,5.6,11.1,8.4,14.5c2.9-3.4,8.4-10.9,8.4-14.5
			C120.8,304.4,117,300.6,112.4,300.6z"/>
	</g>
	<g>
		<linearGradient id="SVGID_47_" gradientUnits="userSpaceOnUse" x1="107.8415" y1="236.5049" x2="116.8703" y2="236.5049">
			<stop  offset="0" style="stop-color:#B7823C"/>
			<stop  offset="0.4604" style="stop-color:#FFD562"/>
			<stop  offset="0.6568" style="stop-color:#B7823C"/>
			<stop  offset="1" style="stop-color:#573C2E"/>
		</linearGradient>
		<path class="st57" d="M116.9,236.5c0,2.5-2,4.5-4.5,4.5c-2.5,0-4.5-2-4.5-4.5c0-2.5,2-4.5,4.5-4.5
			C114.8,232,116.9,234,116.9,236.5z"/>
	</g>
	<g>
		<linearGradient id="SVGID_48_" gradientUnits="userSpaceOnUse" x1="107.8415" y1="111.9998" x2="116.8703" y2="111.9998">
			<stop  offset="0" style="stop-color:#B7823C"/>
			<stop  offset="0.4604" style="stop-color:#FFD562"/>
			<stop  offset="0.6568" style="stop-color:#B7823C"/>
			<stop  offset="1" style="stop-color:#573C2E"/>
		</linearGradient>
		<path class="st58" d="M116.9,112c0,2.5-2,4.5-4.5,4.5c-2.5,0-4.5-2-4.5-4.5c0-2.5,2-4.5,4.5-4.5
			C114.8,107.5,116.9,109.5,116.9,112z"/>
	</g>
	<g>
		<linearGradient id="SVGID_49_" gradientUnits="userSpaceOnUse" x1="107.8415" y1="411.0685" x2="116.8703" y2="411.0685">
			<stop  offset="0" style="stop-color:#B7823C"/>
			<stop  offset="0.4604" style="stop-color:#FFD562"/>
			<stop  offset="0.6568" style="stop-color:#B7823C"/>
			<stop  offset="1" style="stop-color:#573C2E"/>
		</linearGradient>
		<path class="st59" d="M116.9,411.1c0,2.5-2,4.5-4.5,4.5c-2.5,0-4.5-2-4.5-4.5c0-2.5,2-4.5,4.5-4.5
			C114.8,406.6,116.9,408.6,116.9,411.1z"/>
	</g>
	<g>
		<linearGradient id="SVGID_50_" gradientUnits="userSpaceOnUse" x1="107.8415" y1="329.5172" x2="116.8703" y2="329.5172">
			<stop  offset="0" style="stop-color:#B7823C"/>
			<stop  offset="0.4604" style="stop-color:#FFD562"/>
			<stop  offset="0.6568" style="stop-color:#B7823C"/>
			<stop  offset="1" style="stop-color:#573C2E"/>
		</linearGradient>
		<path class="st60" d="M116.9,329.5c0,2.5-2,4.5-4.5,4.5c-2.5,0-4.5-2-4.5-4.5c0-2.5,2-4.5,4.5-4.5
			C114.8,325,116.9,327,116.9,329.5z"/>
	</g>
	<g>
		<g>
			<g>
				<g>
					<linearGradient id="SVGID_51_" gradientUnits="userSpaceOnUse" x1="73.2598" y1="627.2496" x2="151.4522" y2="627.2496">
						<stop  offset="0" style="stop-color:#B7823C"/>
						<stop  offset="0.4604" style="stop-color:#FFD562"/>
						<stop  offset="0.6568" style="stop-color:#B7823C"/>
						<stop  offset="1" style="stop-color:#573C2E"/>
					</linearGradient>
					<path class="st61" d="M109.5,659c-2.4,1.1-4.6,1.9-6.5,3c-0.4,0.2-0.3,1.5-0.1,2.2c0.6,2.6-0.9,4.6-3.6,4.6c-1.7,0-3-1-2.8-2.6
						c0.2-1.6,0.7-3.4,1.6-4.8c1.8-2.6,4.6-3.9,7.5-5c0.6-0.2,1.1-0.5,1.7-0.7c0-0.2,0.1-0.4,0.1-0.5c-1.8-0.8-3.6-1.8-5.5-2.5
						c-0.5-0.2-1.5,0.2-2,0.6c-2.7,2.2-5.3,4.6-7.9,6.8c-0.3,0.2-0.6,0.4-1.1,0.8c-0.2-6.1-4.2-9.9-7.5-14
						c-5.7-7.2-9.2-15.3-10.1-24.3c-1-9.9,3.9-19.7,13.6-24.6c0.6-0.3,1.2-0.3,2.1-0.1c-1.2,1.3-2.3,2.7-3.5,4
						c-4.3,4.4-5.5,9.7-4.7,15.7c1.3,11,7,19.2,15.6,25.7c3.6,2.7,7.5,5.1,11.3,7.6c0.4,0.3,1,0.4,1.8,0.7c0-2,0.1-3.7,0-5.4
						c0-0.5-0.5-1-0.9-1.3c-2.4-1.6-4.9-3.2-7.4-4.8c0.5-1.1,1-2.4,1.6-3.8c-9.6-4.5-15.4-11.7-15.4-22.3c0-10.4,5.9-17.4,15.1-22.2
						c-0.3-0.8-0.6-1.7-0.8-2.3c3.8-3.6,7.4-7.1,10.9-10.4c3.4,3.3,7,6.7,10.8,10.4c-0.1,0.4-0.4,1.3-0.7,2.2
						c9.6,4.6,15.7,11.8,15.6,22.6c-0.1,10.6-6.2,17.9-16,22.1c0.6,1.4,1.2,2.6,1.7,3.7c-2.4,1.5-4.8,3.1-7.2,4.5
						c-1,0.6-1.3,1.3-1.2,2.4c0.1,1.4,0,2.9,0,4.7c2-1.1,3.7-2,5.4-3c7.2-4.5,14-9.6,18.4-17.1c4.2-7.2,6.6-15.1,3.9-23.5
						c-0.6-2.1-2.1-3.9-3.5-5.7c-1.3-1.8-2.9-3.3-4.4-5c0.1-0.2,0.3-0.4,0.4-0.6c1.7,0.8,3.5,1.4,5,2.5c6.3,4.5,10.3,10.4,10.8,18.3
						c0.7,10.5-2.8,19.7-9.1,28c-2.3,3.1-4.7,6.1-6.7,9.4c-1,1.6-1.3,3.6-2,5.5c-2.3-2-4.9-4-7.1-6.3c-1.7-1.8-3.4-2.2-5.6-1
						c-1.1,0.6-2.1,1.2-3.6,2c1.4,0.6,2.4,1.1,3.5,1.6c2.6,1.2,5.1,2.6,6.7,5.2c0.5,0.8,0.9,1.8,1,2.8c0.2,1.4,0,2.8-1.4,3.5
						c-1.5,0.7-2.9,0.2-4-0.8c-1.1-0.9-1.5-2.2-0.8-3.5c0.8-1.6,0.2-2.4-1.3-3c-1.8-0.7-3.5-1.4-5.5-1.8c0.3,3.2-1.4,6.3,1.2,9.1
						c1.2,1.3,1.1,2.8,0.1,4.3c-1,1.5-3.4,2.6-5,2.2c-3.8-0.8-5.5-4.5-2.8-7.3c0.3-0.3,0.6-0.7,0.6-1.1
						C109.5,664.3,109.5,661.9,109.5,659z M120.9,596.7c-4.7,8.3-4.9,28-0.1,35.9c2.3-2,4.7-3.7,6.7-5.8
						C138.6,615.4,131.6,600.5,120.9,596.7z M104.1,596.8c-6.7,2.2-13.4,10.9-11.8,20.8c1,6.3,7.7,14.1,12.3,14.1
						C109.8,620,108,608.4,104.1,596.8z"/>
				</g>
			</g>
		</g>
		<g>
			<g>
				<g>
					<linearGradient id="SVGID_52_" gradientUnits="userSpaceOnUse" x1="102.1087" y1="549.1356" x2="117.0887" y2="549.1356">
						<stop  offset="0" style="stop-color:#B7823C"/>
						<stop  offset="0.4604" style="stop-color:#FFD562"/>
						<stop  offset="0.6568" style="stop-color:#B7823C"/>
						<stop  offset="1" style="stop-color:#573C2E"/>
					</linearGradient>
					<path class="st62" d="M117.1,553.2c0,4.1-3.4,7.5-7.5,7.5c-4.1,0-7.5-3.4-7.5-7.5c0-4.1,7.5-15.7,7.5-15.7
						S117.1,549.1,117.1,553.2z"/>
				</g>
			</g>
			<g>
				<g>
					<linearGradient id="SVGID_53_" gradientUnits="userSpaceOnUse" x1="102.1087" y1="549.1356" x2="117.0887" y2="549.1356">
						<stop  offset="0" style="stop-color:#B7823C"/>
						<stop  offset="0.4604" style="stop-color:#FFD562"/>
						<stop  offset="0.6568" style="stop-color:#B7823C"/>
						<stop  offset="1" style="stop-color:#573C2E"/>
					</linearGradient>
					<path class="st63" d="M117.1,553.2c0,4.1-3.4,7.5-7.5,7.5c-4.1,0-7.5-3.4-7.5-7.5c0-4.1,7.5-15.7,7.5-15.7
						S117.1,549.1,117.1,553.2z"/>
				</g>
			</g>
			<g>
				<g>
					<linearGradient id="SVGID_54_" gradientUnits="userSpaceOnUse" x1="86.8431" y1="551.4985" x2="101.7617" y2="551.4985">
						<stop  offset="0" style="stop-color:#B7823C"/>
						<stop  offset="0.4604" style="stop-color:#FFD562"/>
						<stop  offset="0.6568" style="stop-color:#B7823C"/>
						<stop  offset="1" style="stop-color:#573C2E"/>
					</linearGradient>
					<path class="st64" d="M101.6,553.9c0.9,4-1.7,8-5.8,8.9c-4,0.9-8-1.7-8.9-5.8c-0.9-4,4.1-16.9,4.1-16.9
						S100.7,549.8,101.6,553.9z"/>
				</g>
			</g>
			<g>
				<g>
					<linearGradient id="SVGID_55_" gradientUnits="userSpaceOnUse" x1="72.2473" y1="557.3353" x2="87.224" y2="557.3353">
						<stop  offset="0" style="stop-color:#B7823C"/>
						<stop  offset="0.4604" style="stop-color:#FFD562"/>
						<stop  offset="0.6568" style="stop-color:#B7823C"/>
						<stop  offset="1" style="stop-color:#573C2E"/>
					</linearGradient>
					<path class="st65" d="M86.6,557.7c1.7,3.8,0,8.2-3.8,9.9c-3.8,1.7-8.2,0-9.9-3.8c-1.7-3.8,0.5-17.4,0.5-17.4
						S84.9,553.9,86.6,557.7z"/>
				</g>
			</g>
			<g>
				<g>
					<linearGradient id="SVGID_56_" gradientUnits="userSpaceOnUse" x1="57.4145" y1="566.3906" x2="74.1103" y2="566.3906">
						<stop  offset="0" style="stop-color:#B7823C"/>
						<stop  offset="0.4604" style="stop-color:#FFD562"/>
						<stop  offset="0.6568" style="stop-color:#B7823C"/>
						<stop  offset="1" style="stop-color:#573C2E"/>
					</linearGradient>
					<path class="st66" d="M72.7,564.6c2.4,3.3,1.7,8-1.7,10.5c-3.3,2.4-8,1.7-10.5-1.7c-2.4-3.3-3.1-17.1-3.1-17.1
						S70.2,561.2,72.7,564.6z"/>
				</g>
			</g>
			<g>
				<g>
					<linearGradient id="SVGID_57_" gradientUnits="userSpaceOnUse" x1="43.868" y1="578.2698" x2="62.9964" y2="578.2698">
						<stop  offset="0" style="stop-color:#B7823C"/>
						<stop  offset="0.4604" style="stop-color:#FFD562"/>
						<stop  offset="0.6568" style="stop-color:#B7823C"/>
						<stop  offset="1" style="stop-color:#573C2E"/>
					</linearGradient>
					<path class="st67" d="M60.5,574.2c3.1,2.8,3.3,7.5,0.6,10.6c-2.8,3.1-7.5,3.3-10.6,0.6c-3.1-2.8-6.6-16-6.6-16
						S57.4,571.4,60.5,574.2z"/>
				</g>
			</g>
			<g>
				<g>
					<linearGradient id="SVGID_58_" gradientUnits="userSpaceOnUse" x1="33.3148" y1="592.3928" x2="54.3689" y2="592.3928">
						<stop  offset="0" style="stop-color:#B7823C"/>
						<stop  offset="0.4604" style="stop-color:#FFD562"/>
						<stop  offset="0.6568" style="stop-color:#B7823C"/>
						<stop  offset="1" style="stop-color:#573C2E"/>
					</linearGradient>
					<path class="st68" d="M50.6,586.1c3.6,2.1,4.8,6.7,2.7,10.2c-2.1,3.6-6.6,4.8-10.2,2.7c-3.6-2.1-9.8-14.3-9.8-14.3
						S47,584.1,50.6,586.1z"/>
				</g>
			</g>
			<g>
				<g>
					<linearGradient id="SVGID_59_" gradientUnits="userSpaceOnUse" x1="26.2161" y1="607.0423" x2="48.6026" y2="607.0423">
						<stop  offset="0" style="stop-color:#B7823C"/>
						<stop  offset="0.4604" style="stop-color:#FFD562"/>
						<stop  offset="0.6568" style="stop-color:#B7823C"/>
						<stop  offset="1" style="stop-color:#573C2E"/>
					</linearGradient>
					<path class="st69" d="M43.4,599.9c3.9,1.3,6.1,5.5,4.8,9.4c-1.3,3.9-5.5,6.1-9.4,4.8c-3.9-1.3-12.6-12-12.6-12
						S39.5,598.6,43.4,599.9z"/>
				</g>
			</g>
			<g>
				<g>
					<linearGradient id="SVGID_60_" gradientUnits="userSpaceOnUse" x1="22.882" y1="622.2643" x2="45.9479" y2="622.2643">
						<stop  offset="0" style="stop-color:#B7823C"/>
						<stop  offset="0.4604" style="stop-color:#FFD562"/>
						<stop  offset="0.6568" style="stop-color:#B7823C"/>
						<stop  offset="1" style="stop-color:#573C2E"/>
					</linearGradient>
					<path class="st70" d="M39.2,614.8c4.1,0.4,7.1,4.1,6.7,8.2c-0.4,4.1-4.1,7.1-8.2,6.7c-4.1-0.4-14.8-9.1-14.8-9.1
						S35.1,614.4,39.2,614.8z"/>
				</g>
			</g>
			<g>
				<g>
					<linearGradient id="SVGID_61_" gradientUnits="userSpaceOnUse" x1="23.4585" y1="637.7202" x2="46.5243" y2="637.7202">
						<stop  offset="0" style="stop-color:#B7823C"/>
						<stop  offset="0.4604" style="stop-color:#FFD562"/>
						<stop  offset="0.6568" style="stop-color:#B7823C"/>
						<stop  offset="1" style="stop-color:#573C2E"/>
					</linearGradient>
					<path class="st71" d="M38.3,630.3c4.1-0.4,7.8,2.6,8.2,6.7c0.4,4.1-2.6,7.8-6.7,8.2c-4.1,0.4-16.4-5.8-16.4-5.8
						S34.1,630.7,38.3,630.3z"/>
				</g>
			</g>
			<g>
				<g>
					<linearGradient id="SVGID_62_" gradientUnits="userSpaceOnUse" x1="27.9202" y1="652.7025" x2="50.3067" y2="652.7025">
						<stop  offset="0" style="stop-color:#B7823C"/>
						<stop  offset="0.4604" style="stop-color:#FFD562"/>
						<stop  offset="0.6568" style="stop-color:#B7823C"/>
						<stop  offset="1" style="stop-color:#573C2E"/>
					</linearGradient>
					<path class="st72" d="M40.5,645.6c3.9-1.3,8.2,0.9,9.4,4.8c1.3,3.9-0.9,8.2-4.8,9.4c-3.9,1.3-17.2-2.3-17.2-2.3
						S36.6,646.9,40.5,645.6z"/>
				</g>
			</g>
			<g>
				<g>
					<linearGradient id="SVGID_63_" gradientUnits="userSpaceOnUse" x1="36.0721" y1="666.883" x2="57.1262" y2="666.883">
						<stop  offset="0" style="stop-color:#B7823C"/>
						<stop  offset="0.4604" style="stop-color:#FFD562"/>
						<stop  offset="0.6568" style="stop-color:#B7823C"/>
						<stop  offset="1" style="stop-color:#573C2E"/>
					</linearGradient>
					<path class="st73" d="M45.9,660.2c3.6-2.1,8.2-0.8,10.2,2.7c2.1,3.6,0.8,8.2-2.7,10.2c-3.6,2.1-17.3,1.3-17.3,1.3
						S42.3,662.2,45.9,660.2z"/>
				</g>
			</g>
			<g>
				<g>
					<linearGradient id="SVGID_64_" gradientUnits="userSpaceOnUse" x1="47.558" y1="680.3282" x2="66.6864" y2="680.3282">
						<stop  offset="0" style="stop-color:#B7823C"/>
						<stop  offset="0.4604" style="stop-color:#FFD562"/>
						<stop  offset="0.6568" style="stop-color:#B7823C"/>
						<stop  offset="1" style="stop-color:#573C2E"/>
					</linearGradient>
					<path class="st74" d="M54.2,673.3c3.1-2.8,7.8-2.5,10.6,0.6c2.8,3.1,2.5,7.8-0.6,10.6c-3.1,2.8-16.7,4.9-16.7,4.9
						S51.1,676,54.2,673.3z"/>
				</g>
			</g>
			<g>
				<g>
					<linearGradient id="SVGID_65_" gradientUnits="userSpaceOnUse" x1="61.8759" y1="691.3506" x2="78.5717" y2="691.3506">
						<stop  offset="0" style="stop-color:#B7823C"/>
						<stop  offset="0.4604" style="stop-color:#FFD562"/>
						<stop  offset="0.6568" style="stop-color:#B7823C"/>
						<stop  offset="1" style="stop-color:#573C2E"/>
					</linearGradient>
					<path class="st75" d="M65,684.4c2.4-3.3,7.1-4.1,10.5-1.7c3.3,2.4,4.1,7.1,1.7,10.5c-2.4,3.3-15.3,8.3-15.3,8.3
						S62.6,687.7,65,684.4z"/>
				</g>
			</g>
			<g>
				<g>
					<linearGradient id="SVGID_66_" gradientUnits="userSpaceOnUse" x1="77.2851" y1="699.4073" x2="92.2617" y2="699.4073">
						<stop  offset="0" style="stop-color:#B7823C"/>
						<stop  offset="0.4604" style="stop-color:#FFD562"/>
						<stop  offset="0.6568" style="stop-color:#B7823C"/>
						<stop  offset="1" style="stop-color:#573C2E"/>
					</linearGradient>
					<path class="st76" d="M77.9,693c1.7-3.8,6.1-5.5,9.9-3.8c3.8,1.7,5.5,6.1,3.8,9.9s-13.2,11.3-13.2,11.3S76.2,696.7,77.9,693z"
						/>
				</g>
			</g>
			<g>
				<g>
					<linearGradient id="SVGID_67_" gradientUnits="userSpaceOnUse" x1="92.2371" y1="704.1475" x2="107.1558" y2="704.1475">
						<stop  offset="0" style="stop-color:#B7823C"/>
						<stop  offset="0.4604" style="stop-color:#FFD562"/>
						<stop  offset="0.6568" style="stop-color:#B7823C"/>
						<stop  offset="1" style="stop-color:#573C2E"/>
					</linearGradient>
					<path class="st77" d="M92.3,698.7c0.9-4,4.8-6.6,8.9-5.8c4,0.9,6.6,4.8,5.8,8.9c-0.9,4-10.6,13.8-10.6,13.8
						S91.5,702.7,92.3,698.7z"/>
				</g>
			</g>
			<g>
				<g>
					<linearGradient id="SVGID_68_" gradientUnits="userSpaceOnUse" x1="107.6232" y1="705.3638" x2="122.6032" y2="705.3638">
						<stop  offset="0" style="stop-color:#B7823C"/>
						<stop  offset="0.4604" style="stop-color:#FFD562"/>
						<stop  offset="0.6568" style="stop-color:#B7823C"/>
						<stop  offset="1" style="stop-color:#573C2E"/>
					</linearGradient>
					<path class="st78" d="M107.6,701.3c0-4.1,3.4-7.5,7.5-7.5c4.1,0,7.5,3.4,7.5,7.5c0,4.1-7.5,15.7-7.5,15.7
						S107.6,705.4,107.6,701.3z"/>
				</g>
			</g>
			<g>
				<g>
					<linearGradient id="SVGID_69_" gradientUnits="userSpaceOnUse" x1="122.9502" y1="703.0007" x2="137.8689" y2="703.0007">
						<stop  offset="0" style="stop-color:#B7823C"/>
						<stop  offset="0.4604" style="stop-color:#FFD562"/>
						<stop  offset="0.6568" style="stop-color:#B7823C"/>
						<stop  offset="1" style="stop-color:#573C2E"/>
					</linearGradient>
					<path class="st79" d="M123.1,700.6c-0.9-4,1.7-8,5.8-8.9c4-0.9,8,1.7,8.9,5.8c0.9,4-4.1,16.9-4.1,16.9S124,704.7,123.1,700.6z"
						/>
				</g>
			</g>
			<g>
				<g>
					<linearGradient id="SVGID_70_" gradientUnits="userSpaceOnUse" x1="137.488" y1="697.164" x2="152.4646" y2="697.164">
						<stop  offset="0" style="stop-color:#B7823C"/>
						<stop  offset="0.4604" style="stop-color:#FFD562"/>
						<stop  offset="0.6568" style="stop-color:#B7823C"/>
						<stop  offset="1" style="stop-color:#573C2E"/>
					</linearGradient>
					<path class="st80" d="M138.1,696.8c-1.7-3.8,0-8.2,3.8-9.9c3.8-1.7,8.2,0,9.9,3.8c1.7,3.8-0.5,17.4-0.5,17.4
						S139.8,700.6,138.1,696.8z"/>
				</g>
			</g>
			<g>
				<g>
					<linearGradient id="SVGID_71_" gradientUnits="userSpaceOnUse" x1="150.6017" y1="688.1087" x2="167.2974" y2="688.1087">
						<stop  offset="0" style="stop-color:#B7823C"/>
						<stop  offset="0.4604" style="stop-color:#FFD562"/>
						<stop  offset="0.6568" style="stop-color:#B7823C"/>
						<stop  offset="1" style="stop-color:#573C2E"/>
					</linearGradient>
					<path class="st81" d="M152,689.9c-2.4-3.3-1.7-8,1.7-10.5c3.3-2.4,8-1.7,10.5,1.7c2.4,3.3,3.1,17.1,3.1,17.1
						S154.5,693.3,152,689.9z"/>
				</g>
			</g>
			<g>
				<g>
					<linearGradient id="SVGID_72_" gradientUnits="userSpaceOnUse" x1="161.7156" y1="676.2294" x2="180.8439" y2="676.2294">
						<stop  offset="0" style="stop-color:#B7823C"/>
						<stop  offset="0.4604" style="stop-color:#FFD562"/>
						<stop  offset="0.6568" style="stop-color:#B7823C"/>
						<stop  offset="1" style="stop-color:#573C2E"/>
					</linearGradient>
					<path class="st82" d="M164.2,680.3c-3.1-2.8-3.3-7.5-0.6-10.6c2.8-3.1,7.5-3.3,10.6-0.6c3.1,2.8,6.6,16,6.6,16
						S167.3,683.1,164.2,680.3z"/>
				</g>
			</g>
			<g>
				<g>
					<linearGradient id="SVGID_73_" gradientUnits="userSpaceOnUse" x1="170.3431" y1="662.1064" x2="191.3971" y2="662.1064">
						<stop  offset="0" style="stop-color:#B7823C"/>
						<stop  offset="0.4604" style="stop-color:#FFD562"/>
						<stop  offset="0.6568" style="stop-color:#B7823C"/>
						<stop  offset="1" style="stop-color:#573C2E"/>
					</linearGradient>
					<path class="st83" d="M174.1,668.4c-3.6-2.1-4.8-6.7-2.7-10.2s6.6-4.8,10.2-2.7c3.6,2.1,9.8,14.3,9.8,14.3
						S177.7,670.4,174.1,668.4z"/>
				</g>
			</g>
			<g>
				<g>
					<linearGradient id="SVGID_74_" gradientUnits="userSpaceOnUse" x1="176.1094" y1="647.4569" x2="198.4958" y2="647.4569">
						<stop  offset="0" style="stop-color:#B7823C"/>
						<stop  offset="0.4604" style="stop-color:#FFD562"/>
						<stop  offset="0.6568" style="stop-color:#B7823C"/>
						<stop  offset="1" style="stop-color:#573C2E"/>
					</linearGradient>
					<path class="st84" d="M181.3,654.6c-3.9-1.3-6.1-5.5-4.8-9.4c1.3-3.9,5.5-6.1,9.4-4.8c3.9,1.3,12.6,12,12.6,12
						S185.2,655.9,181.3,654.6z"/>
				</g>
			</g>
			<g>
				<g>
					<linearGradient id="SVGID_75_" gradientUnits="userSpaceOnUse" x1="178.7641" y1="632.235" x2="201.8298" y2="632.235">
						<stop  offset="0" style="stop-color:#B7823C"/>
						<stop  offset="0.4604" style="stop-color:#FFD562"/>
						<stop  offset="0.6568" style="stop-color:#B7823C"/>
						<stop  offset="1" style="stop-color:#573C2E"/>
					</linearGradient>
					<path class="st85" d="M185.5,639.7c-4.1-0.4-7.1-4.1-6.7-8.2c0.4-4.1,4.1-7.1,8.2-6.7c4.1,0.4,14.8,9.1,14.8,9.1
						S189.6,640.1,185.5,639.7z"/>
				</g>
			</g>
			<g>
				<g>
					<linearGradient id="SVGID_76_" gradientUnits="userSpaceOnUse" x1="178.1877" y1="616.7791" x2="201.2534" y2="616.7791">
						<stop  offset="0" style="stop-color:#B7823C"/>
						<stop  offset="0.4604" style="stop-color:#FFD562"/>
						<stop  offset="0.6568" style="stop-color:#B7823C"/>
						<stop  offset="1" style="stop-color:#573C2E"/>
					</linearGradient>
					<path class="st86" d="M186.5,624.2c-4.1,0.4-7.8-2.6-8.2-6.7s2.6-7.8,6.7-8.2c4.1-0.4,16.4,5.8,16.4,5.8
						S190.6,623.8,186.5,624.2z"/>
				</g>
			</g>
			<g>
				<g>
					<linearGradient id="SVGID_77_" gradientUnits="userSpaceOnUse" x1="174.4053" y1="601.7968" x2="196.7917" y2="601.7968">
						<stop  offset="0" style="stop-color:#B7823C"/>
						<stop  offset="0.4604" style="stop-color:#FFD562"/>
						<stop  offset="0.6568" style="stop-color:#B7823C"/>
						<stop  offset="1" style="stop-color:#573C2E"/>
					</linearGradient>
					<path class="st87" d="M184.2,608.9c-3.9,1.3-8.2-0.9-9.4-4.8c-1.3-3.9,0.9-8.2,4.8-9.4c3.9-1.3,17.2,2.3,17.2,2.3
						S188.1,607.6,184.2,608.9z"/>
				</g>
			</g>
			<g>
				<g>
					<linearGradient id="SVGID_78_" gradientUnits="userSpaceOnUse" x1="167.5858" y1="587.6163" x2="188.6398" y2="587.6163">
						<stop  offset="0" style="stop-color:#B7823C"/>
						<stop  offset="0.4604" style="stop-color:#FFD562"/>
						<stop  offset="0.6568" style="stop-color:#B7823C"/>
						<stop  offset="1" style="stop-color:#573C2E"/>
					</linearGradient>
					<path class="st88" d="M178.8,594.3c-3.6,2.1-8.2,0.8-10.2-2.7s-0.8-8.2,2.7-10.2c3.6-2.1,17.3-1.3,17.3-1.3
						S182.4,592.3,178.8,594.3z"/>
				</g>
			</g>
			<g>
				<g>
					<linearGradient id="SVGID_79_" gradientUnits="userSpaceOnUse" x1="158.0256" y1="574.171" x2="177.1539" y2="574.171">
						<stop  offset="0" style="stop-color:#B7823C"/>
						<stop  offset="0.4604" style="stop-color:#FFD562"/>
						<stop  offset="0.6568" style="stop-color:#B7823C"/>
						<stop  offset="1" style="stop-color:#573C2E"/>
					</linearGradient>
					<path class="st89" d="M170.5,581.2c-3.1,2.8-7.8,2.5-10.6-0.6c-2.8-3.1-2.5-7.8,0.6-10.6c3.1-2.8,16.7-4.9,16.7-4.9
						S173.6,578.5,170.5,581.2z"/>
				</g>
			</g>
			<g>
				<g>
					<linearGradient id="SVGID_80_" gradientUnits="userSpaceOnUse" x1="146.1403" y1="563.1486" x2="162.836" y2="563.1486">
						<stop  offset="0" style="stop-color:#B7823C"/>
						<stop  offset="0.4604" style="stop-color:#FFD562"/>
						<stop  offset="0.6568" style="stop-color:#B7823C"/>
						<stop  offset="1" style="stop-color:#573C2E"/>
					</linearGradient>
					<path class="st90" d="M159.7,570.1c-2.4,3.3-7.1,4.1-10.5,1.7c-3.3-2.4-4.1-7.1-1.7-10.5c2.4-3.3,15.3-8.3,15.3-8.3
						S162.1,566.8,159.7,570.1z"/>
				</g>
			</g>
			<g>
				<g>
					<linearGradient id="SVGID_81_" gradientUnits="userSpaceOnUse" x1="132.4502" y1="555.092" x2="147.4268" y2="555.092">
						<stop  offset="0" style="stop-color:#B7823C"/>
						<stop  offset="0.4604" style="stop-color:#FFD562"/>
						<stop  offset="0.6568" style="stop-color:#B7823C"/>
						<stop  offset="1" style="stop-color:#573C2E"/>
					</linearGradient>
					<path class="st91" d="M146.8,561.5c-1.7,3.8-6.1,5.5-9.9,3.8c-3.8-1.7-5.5-6.1-3.8-9.9s13.2-11.3,13.2-11.3
						S148.5,557.8,146.8,561.5z"/>
				</g>
			</g>
			<g>
				<g>
					<linearGradient id="SVGID_82_" gradientUnits="userSpaceOnUse" x1="117.5562" y1="550.3517" x2="132.4748" y2="550.3517">
						<stop  offset="0" style="stop-color:#B7823C"/>
						<stop  offset="0.4604" style="stop-color:#FFD562"/>
						<stop  offset="0.6568" style="stop-color:#B7823C"/>
						<stop  offset="1" style="stop-color:#573C2E"/>
					</linearGradient>
					<path class="st92" d="M132.4,555.8c-0.9,4-4.8,6.6-8.9,5.8c-4-0.9-6.6-4.8-5.8-8.9c0.9-4,10.6-13.8,10.6-13.8
						S133.2,551.8,132.4,555.8z"/>
				</g>
			</g>
		</g>
		<g>
			<linearGradient id="SVGID_83_" gradientUnits="userSpaceOnUse" x1="11.2477" y1="627.2496" x2="213.464" y2="627.2496">
				<stop  offset="0" style="stop-color:#B7823C"/>
				<stop  offset="0.4604" style="stop-color:#FFD562"/>
				<stop  offset="0.6568" style="stop-color:#B7823C"/>
				<stop  offset="1" style="stop-color:#573C2E"/>
			</linearGradient>
			<path class="st93" d="M112.4,728.4c-55.8,0-101.1-45.4-101.1-101.1c0-55.8,45.4-101.1,101.1-101.1s101.1,45.4,101.1,101.1
				C213.5,683,168.1,728.4,112.4,728.4z M112.4,527.8c-54.8,0-99.4,44.6-99.4,99.4c0,54.8,44.6,99.4,99.4,99.4s99.4-44.6,99.4-99.4
				C211.7,572.4,167.2,527.8,112.4,527.8z"/>
		</g>
		<g>
			<linearGradient id="SVGID_84_" gradientUnits="userSpaceOnUse" x1="52.9817" y1="627.2496" x2="171.73" y2="627.2496">
				<stop  offset="0" style="stop-color:#B7823C"/>
				<stop  offset="0.4604" style="stop-color:#FFD562"/>
				<stop  offset="0.6568" style="stop-color:#B7823C"/>
				<stop  offset="1" style="stop-color:#573C2E"/>
			</linearGradient>
			<path class="st94" d="M112.4,686.6C79.6,686.6,53,660,53,627.2c0-32.7,26.6-59.4,59.4-59.4c32.7,0,59.4,26.6,59.4,59.4
				C171.7,660,145.1,686.6,112.4,686.6z M112.4,569.6c-31.8,0-57.7,25.9-57.7,57.7c0,31.8,25.9,57.7,57.7,57.7S170,659,170,627.2
				C170,595.5,144.1,569.6,112.4,569.6z"/>
		</g>
	</g>
</g>
</svg>
